<?xml version="1.0" encoding="UTF-8" standalone="no"?>
<!-- Created with Inkscape (http://www.inkscape.org/) -->

<svg
   xmlns:dc="http://purl.org/dc/elements/1.1/"
   xmlns:cc="http://creativecommons.org/ns#"
   xmlns:rdf="http://www.w3.org/1999/02/22-rdf-syntax-ns#"
   xmlns:svg="http://www.w3.org/2000/svg"
   xmlns="http://www.w3.org/2000/svg"
   xmlns:sodipodi="http://sodipodi.sourceforge.net/DTD/sodipodi-0.dtd"
   xmlns:inkscape="http://www.inkscape.org/namespaces/inkscape"
   id="svg2"
   version="1.1"
   inkscape:version="0.48.4 r9939"
   width="899.95502"
   height="901.83002"
   xml:space="preserve"
   sodipodi:docname="stampa3d.pdf"><metadata
     id="metadata8"><rdf:RDF><cc:Work
         rdf:about=""><dc:format>image/svg+xml</dc:format><dc:type
           rdf:resource="http://purl.org/dc/dcmitype/StillImage" /><dc:title></dc:title></cc:Work></rdf:RDF></metadata><defs
     id="defs6"><clipPath
       clipPathUnits="userSpaceOnUse"
       id="clipPath24"><path
         d="m 0,1190.55 841.89,0 L 841.89,0 0,0 0,1190.55 z"
         id="path26"
         inkscape:connector-curvature="0" /></clipPath></defs><sodipodi:namedview
     pagecolor="#ffffff"
     bordercolor="#666666"
     borderopacity="1"
     objecttolerance="10"
     gridtolerance="10"
     guidetolerance="10"
     inkscape:pageopacity="0"
     inkscape:pageshadow="2"
     inkscape:window-width="1920"
     inkscape:window-height="1027"
     id="namedview4"
     showgrid="false"
     fit-margin-top="0"
     fit-margin-left="0"
     fit-margin-right="0"
     fit-margin-bottom="0"
     inkscape:zoom="0.31716434"
     inkscape:cx="-274.66701"
     inkscape:cy="779.73919"
     inkscape:window-x="0"
     inkscape:window-y="30"
     inkscape:window-maximized="1"
     inkscape:current-layer="g10" /><g
     id="g10"
     inkscape:groupmode="layer"
     inkscape:label="stampa3d"
     transform="matrix(1.25,0,0,-1.25,-68.99875,1412.5725)"><path
       d="m 557.674,487.34 167.992,0 0,-43.498 -167.992,0 0,43.498 z m -455.227,38.518 625.469,0 0,-20.425 -625.469,0 0,20.425 z m -2.25,455.707 625.469,0 0,-434.978 -625.469,0 0,434.978 z m 0,104.995 625.469,0 0,-79.496 -625.469,0 0,79.496 z m -44.998,43.498 0,-704.965 0,-16.499 182.991,0 0,16.499 353.982,0 0,-16.499 182.991,0 0,16.499 0,704.965 -719.964,0 z"
       style="fill:#46bcc5;fill-opacity:1;fill-rule:nonzero;stroke:none"
       id="path18"
       inkscape:connector-curvature="0" /><g
       id="g20"><g
         id="g22"
         clip-path="url(#clipPath24)"><g
           id="g28"
           transform="translate(459.3352,1046.812)"><path
             d="m 0,0 -88.308,0 c -11.649,0 -21.093,-9.444 -21.093,-21.093 l 0,-75.558 c 0,-11.65 9.444,-21.093 21.093,-21.093 l 27.9,0 16.254,-28.152 16.254,28.152 27.9,0 c 11.649,0 21.093,9.443 21.093,21.093 l 0,75.558 C 21.093,-9.444 11.649,0 0,0"
             style="fill:#2c638f;fill-opacity:1;fill-rule:nonzero;stroke:none"
             id="path30"
             inkscape:connector-curvature="0" /></g></g></g><text
       transform="matrix(1,0,0,-1,348.7773,802.271)"
       id="text32"><tspan
         style="font-size:96px;font-variant:normal;font-weight:bold;font-stretch:normal;writing-mode:lr-tb;fill:#2c638f;fill-opacity:1;fill-rule:nonzero;stroke:none;font-family:Montserrat;-inkscape-font-specification:Montserrat-Bold"
         x="0 56.736"
         y="0"
         sodipodi:role="line"
         id="tspan34">3D</tspan><tspan
         style="font-size:96px;font-variant:normal;font-weight:bold;font-stretch:normal;writing-mode:lr-tb;fill:#2c638f;fill-opacity:1;fill-rule:nonzero;stroke:none;font-family:Montserrat;-inkscape-font-specification:Montserrat-Bold"
         x="-177.216 -112.224 -42.431999 -10.944 67.487999 125.856 157.34399 235.776"
         y="103.008"
         sodipodi:role="line"
         id="tspan36">PRINTING</tspan><tspan
         style="font-size:96px;font-variant:normal;font-weight:bold;font-stretch:normal;writing-mode:lr-tb;fill:#2c638f;fill-opacity:1;fill-rule:nonzero;stroke:none;font-family:Montserrat;-inkscape-font-specification:Montserrat-Bold"
         x="-230.20799 -133.44 -54.144001 15.648 81.984001 143.23199 216.384 295.67999"
         y="206.01601"
         sodipodi:role="line"
         id="tspan38">WORKSHOP</tspan></text>
</g></svg>