<?xml version="1.0" encoding="utf-8"?>
<!-- Generator: Adobe Illustrator 18.0.0, SVG Export Plug-In . SVG Version: 6.00 Build 0)  -->
<!DOCTYPE svg PUBLIC "-//W3C//DTD SVG 1.1//EN" "http://www.w3.org/Graphics/SVG/1.1/DTD/svg11.dtd">
<svg version="1.1" id="Layer_1" xmlns="http://www.w3.org/2000/svg" xmlns:xlink="http://www.w3.org/1999/xlink" x="0px" y="0px"
	 viewBox="0 0 322.7 330" enable-background="new 0 0 322.7 330" xml:space="preserve">
<g>
	<path fill="#FFFFFF" d="M5.6,253.7c0.3-10.3,0.6-20.6,1-30.8c0.2-4.3,2-6,6.3-6.5c6.8-0.9,13.2-0.1,18.6,4.8c6,5.4,6,13,1.6,18.7
		c-3.6,4.7-8.4,7.4-14.6,7.3c-0.7,0-1.3,0-2,0c-2.1,0.1-2.9,0.9-2.9,3.1c-0.1,3.6-0.1,7.2-0.2,10.9c-0.1,2.7-0.8,3.7-2.7,4
		c-2.4,0.4-4.4-0.5-4.9-3c-0.5-2.7-0.5-5.6-0.6-8.4C5.4,253.7,5.5,253.7,5.6,253.7z M17.5,239.6c2.3-0.8,4.7-1.4,6.8-2.6
		c5.2-3.1,5-8.6-0.4-11.2c-2-1-4.4-1.3-6.6-1.8c-1.4-0.3-2,0.5-2.1,2c-0.1,3.3-0.3,6.6-0.6,9.8C14.3,238.8,14.5,239.1,17.5,239.6z"
		/>
	<path fill="#FFFFFF" d="M145.5,255.4c5.2,3.7,9.8,3.4,14.5,1.6c1.4-0.5,2.7-1.4,4.1-1.8c2.9-0.8,5.1,1.5,3.9,4.3
		c-0.5,1.3-1.6,2.6-2.8,3.4c-6.6,4.3-18.5,4.1-24.2-1.2c-3.9-3.5-5-7.7-4.5-12.5c0.4-4.3,2-8.3,4.8-11.7c5.8-6.9,15.8-6.9,22.5-2.2
		c3.9,2.7,3.6,9-0.5,11.5c-3.8,2.3-8,4.1-12,6C149.8,253.6,148.1,254.3,145.5,255.4z M158.2,241.1c-7.4-2.4-10.7-0.6-12.4,5.8
		c1.1-0.4,2-0.7,2.8-1.1C151.5,244.5,154.4,243,158.2,241.1z"/>
	<path fill="#FFFFFF" d="M214.5,235.2c1.5-1,2.7-1.9,4-2.5c6.4-3.4,12.4-0.6,13.9,6.4c0.5,2.6,0.7,5.2,0.9,7.9
		c0.4,4.6,0.7,9.2,1,13.9c0.2,3.9-0.9,5.7-3.5,6.1c-2.8,0.4-4.9-1.4-5.1-5.3c-0.3-5.4-2-10.8-0.6-16.3c0.4-1.6,0.8-3.7-1-5.1
		c-1.2-0.9-3.1,0-4.9,2.4c-2.7,3.5-4.5,7.3-4.7,11.8c-0.1,2.8-0.1,5.6-0.6,8.4c-0.6,3.8-4.3,5.3-7,2.9c-0.8-0.7-1.3-2-1.4-3
		c-0.2-3.7-0.2-7.5-0.2-11.3c0-5.3,0.1-10.6,0.3-16c0.1-3,2-4.7,4.7-4.6c1.4,0.1,2.6,0.6,3.2,1.9
		C213.7,233.6,214.1,234.3,214.5,235.2z"/>
	<path fill="#FFFFFF" d="M287.3,250c-0.4-7.7,4.7-16.6,15.9-17.6c4.2-0.4,8.2,1.3,10.7,5.1c5.3,7.9,3.8,18.8-2.3,25.1
		c-5.5,5.6-18.8,4.4-22.3-3.6C287.7,255.4,287.3,254.7,287.3,250z M309,249.4c-0.3-1.9-0.4-3.2-0.8-4.5c-1.2-4.3-5.5-5.5-8.9-2.5
		c-3,2.6-4.3,7.5-3.1,11.2c1.1,3.1,2.4,4.3,5.2,4.3c2.7,0.1,5-0.8,6-3.4C308.3,252.7,308.6,250.8,309,249.4z"/>
	<path fill="#FFFFFF" d="M68.5,248.5c0.1,3.6-0.7,6.9-2.4,10c-3.2,6.1-8.4,8.1-14.9,7.5c-6-0.6-9.7-4.1-11.6-9.5
		c-2.3-6.9-1.1-13.5,3.8-19c3.5-3.9,8.1-5.7,13.4-4.9c6.8,1.1,10.8,5.5,11.5,12.4C68.5,246.2,68.5,247.4,68.5,248.5z M60.5,249.3
		c-0.3-1.6-0.4-3.3-1-4.8c-1.3-3.7-4.4-4.7-7.8-2.7c-0.7,0.4-1.4,0.9-1.9,1.6c-2.2,2.9-3.1,6.3-2.3,9.8c0.4,2.1,1.7,4,4,4.7
		c2.3,0.6,4.6,0.2,6.4-1.7C59.7,254.2,60.5,252,60.5,249.3z"/>
	<path fill="#FFFFFF" d="M116.5,253.7c-0.2-3.5-0.2-7-0.6-10.4c-0.4-3.2-0.6-3.1-3.7-3.4c-1.1-0.1-2.3-0.3-3.3-0.7
		c-2.3-0.9-3-2.2-2.5-4.6c0.4-1.8,1.9-3.1,3.9-3.2c1.7-0.1,3.8,1.6,4.9-0.6c0.7-1.3,0.2-3.2,0.3-4.9c0.1-2.9,0.8-3.7,3.3-4
		c2.9-0.4,4.2,0.3,4.9,2.9c0.5,1.6,0.5,3.2,0.7,4.9c0.1,1.5,0.7,2,2.3,1.8c1.5-0.2,3-0.2,4.4,0.1c2.4,0.4,3.5,1.9,3.5,4.1
		c0,2.5-1.4,4-3.9,4.3c-0.7,0.1-1.3,0-2,0c-4.9-0.2-4.2,0.3-4.1,4.5c0.1,4,0.6,7.9,0.6,11.9c0,2.5-0.3,4.9-0.8,7.4
		c-0.4,2-2.4,3.4-3.9,3.2c-2.2-0.2-4-2-4.1-4.2c-0.1-3,0-6,0-9C116.3,253.7,116.4,253.7,116.5,253.7z"/>
	<path fill="#FFFFFF" d="M171.3,251.9c0.9-7.7,3.8-14.4,10.6-18.7c4.7-3,13.7-1.2,17.3,3c0.9,1.1,1.5,2.2,0.7,3.6
		c-0.7,1.2-1.4,2.4-2.9,2.3c-1.1-0.1-2.3-0.3-3.4-0.6c-0.8-0.2-1.4-0.8-2.2-1.1c-3.5-1.4-6.1-0.8-8.2,2.4c-1.4,2.2-2.6,4.6-3.4,7.1
		c-1.3,4,1.1,7.6,5.3,8.3c3,0.5,5.8,0,8.5-1.7c2.7-1.6,4.8-1.2,6.2,0.6c1.1,1.3,1.2,3.4-0.1,4.4c-7.7,6.4-19.4,7.3-26.2-2.1
		C172,257.3,171.1,254.8,171.3,251.9z"/>
	<path fill="#FFFFFF" d="M254.4,251c0.9-6.7,3.9-13.3,10.6-17.8c2.2-1.4,4.8-2.2,7.5-1.3c2.8,1,5.7,1.8,8.3,3c2.3,1.1,2.9,3,2.1,4.9
		c-0.9,2.1-2.9,2.9-5.4,2c-0.9-0.3-1.7-1.1-2.6-1.4c-3.4-1.5-6.7-0.7-8.7,2.4c-1.4,2.2-2.5,4.7-3.4,7.2c-1.2,3.4,0.6,6.6,4,8
		c2.6,1,5.1,0.8,7.7-0.1c1.4-0.5,2.7-1.4,4-1.9c1.8-0.7,3.8,0.1,4.6,1.7c0.8,1.5,0.4,3.4-1,4.5c-7.3,5.6-17.3,6.2-23.9-0.6
		C255.8,258.9,254.5,255.7,254.4,251z"/>
	<path fill="#FFFFFF" d="M58.7,314.3c2.7-6.4,4.5-12,5.7-17.9c0.4-2.2,0.7-5,3-5.1c2.9-0.1,2.7,3,3.2,5.3c1.5,7.3,3.2,14.5,4.6,21.8
		c0.3,1.5,1.2,3.4-0.9,4.4c-1.4,0.7-2.8-0.4-3.4-3.3c-1-4.5-1.7-9.1-2.5-13.6c-0.2-0.9-0.6-1.7-1.2-3.2c-1.8,5.4-3.3,10-4.8,14.7
		c-0.4,1.1-0.7,2.3-1.4,3.2c-0.5,0.7-1.5,1.5-2.3,1.4c-0.8-0.1-1.9-1-2.1-1.7c-1.2-3.9-2.1-8-3.2-12c-0.4-1.4-0.8-2.8-1.9-4.1
		c-1.1,4.8-2.1,9.7-3.2,14.5c-0.1,0.6,0,1.5-0.3,1.9c-0.7,0.8-1.6,1.4-2.4,2c-0.7-0.9-1.9-1.8-1.9-2.6c0-2.1,0.6-4.2,1-6.3
		c1.2-5.3,2.5-10.6,3.8-15.9c0.4-1.4,0.7-2.9,1.3-4.3c0.5-1.2,1.5-2,2.8-1.6c0.8,0.3,1.6,1.1,1.9,1.9c0.5,1.4,0.7,2.9,1,4.3
		C56.5,303.2,57.5,308.4,58.7,314.3z"/>
	<path fill="#FFFFFF" d="M83.4,240.6c0,6.1,0,12.3,0,18.4c0,1.5-0.3,2.9-0.7,4.3c-0.5,1.8-1.8,2.8-3.7,2.6c-1.7-0.1-3.3-0.8-3.8-2.6
		c-0.4-1.2-0.7-2.6-0.7-3.8c-0.1-12.8,0-25.6,0-38.3c0-0.5-0.1-1,0-1.5c0.4-2.9,2.2-4.7,4.8-4.7c2.5,0,4.1,1.9,4.1,5.1
		C83.4,226.9,83.4,233.8,83.4,240.6z"/>
	<path fill="#FFFFFF" d="M199.5,306c-0.3-0.5-0.5-1-0.8-1.3c-2.2-2.4-2.9-5-1.3-8.2c1.8-3.5,4.7-5.3,8.4-5.3
		c6.2,0.1,8.6,2.5,8.3,9.2c-0.1,1.7-1.8,3.3-3,5.3c3.3,1.6,4.6,4.7,4.4,8.6c-0.2,4-2.5,7-6.5,7.6c-2.3,0.3-4.7,0.5-7,0.1
		c-5.3-0.9-8.5-6.5-5.1-12.9C197.6,308,198.6,307,199.5,306z M211.5,313.5c-0.1-2.8-3.5-6.3-6-6.3c-2.6,0-6.1,4-6,7
		c0.1,2.8,3,5,6.4,4.9C209.3,319,211.5,316.7,211.5,313.5z M210.3,298.7c-0.1-2.5-2-4.3-4.5-4.2c-2.6,0-5.6,3.1-5.3,5.4
		c0.3,1.9,3,3.8,5.2,3.7C208.2,303.5,210.4,301.1,210.3,298.7z"/>
	<path fill="#FFFFFF" d="M248.8,241.4c0,3.9,0,7.9,0,11.8c0,1.3,0.3,2.6,0.3,3.9c0,1.6,0.2,3.3-0.2,4.9c-0.7,2.7-2.3,3.5-5.4,3.1
		c-2.3-0.3-3.2-1.2-3.2-4.1c0-8,0.2-15.9,0.3-23.9c0-1.9,0.5-3.7,2.3-4.6c2.5-1.3,5.9,0.5,6.3,3.5c0.2,1.8,0,3.6,0,5.5
		C249.1,241.4,248.9,241.4,248.8,241.4z"/>
	<path fill="#FFFFFF" d="M225.8,303.3c2.1-0.2,3.7-0.4,5.3-0.4c5.8-0.1,9.4,3.5,9.2,9.3c-0.2,6.7-6.2,13.4-14.5,9.9
		c-3.3-1.4-4.7-4.3-5.2-7.4c-1.6-9.7,2.9-17,9.9-23c0.5-0.4,1.2-0.7,1.8-0.6c0.6,0,1.3,0.4,1.7,0.8c0.2,0.2,0.1,1-0.1,1.3
		c-0.5,0.8-1.2,1.5-1.9,2.3c-1.5,1.6-3,3.1-4.4,4.8C226.9,300.9,226.5,302,225.8,303.3z M230,319.2c4.6,0.1,5.5-2.6,6.1-6.9
		c0.4-3.2-2.5-5.8-5.9-6c-3.3-0.2-5.8,2.1-5.8,5.3C224.2,316.6,226.2,319.2,230,319.2z"/>
	<path fill="#FFFFFF" d="M92.4,249.5c0-3.8-0.1-7.7,0.1-11.5c0.1-1.4,0.4-3,1.1-4.2c1.5-2.5,5.2-2.5,6.6,0c0.8,1.4,1.1,3.1,1.1,4.7
		c-0.2,7.6-0.5,15.3-0.8,22.9c-0.1,3-1,3.8-4,3.8c-3,0-4-0.8-4.1-3.7C92.3,257.5,92.4,253.5,92.4,249.5
		C92.4,249.5,92.4,249.5,92.4,249.5z"/>
	<path fill="#FFFFFF" d="M259.4,305.2c4.6,3.4,5.8,6.6,4.4,10.6c-1.4,3.9-4.8,6.2-9.2,6.3c-3.8,0.1-6.9-1-8.5-4.7
		c-0.2-0.6,0-1.8,0.4-2.1c0.5-0.4,1.5-0.2,2.3,0c0.4,0.1,0.6,0.7,0.9,1.1c0.4,0.5,0.9,1,1.4,1.4c2.7,1.8,6.6,0.9,8.4-1.7
		c1.4-2,0.9-5.2-1.6-7c-1.4-1-3.3-1.3-5-2c-0.8-0.4-1.5-1.1-2.3-1.7c0.7-0.6,1.2-1.5,2-1.9c1.3-0.6,2.8-0.8,4.3-1.2
		c1.7-0.5,3-1.7,3-3.5c0.1-1.8-1.8-3.5-4.1-3.6c-1.6,0-3.2,0.6-4.8,1c-0.9,0.2-1.8,0.8-2.7,1c-1,0.1-1.8-1.3-1.4-2.1
		c1.2-2.5,5.6-4.3,9.2-3.8c4,0.6,6.9,3,7.3,6.4C263.7,300.8,262.8,303.5,259.4,305.2z"/>
	<path fill="#FFFFFF" d="M118.1,308.9c-0.6,3.7-0.3,7.5,1.2,11.1c0.3,0.6,0.1,1.7-0.3,2.2c-0.2,0.3-1.6,0.2-2-0.2
		c-1.4-1.1-2.6-1.1-4.1-0.3c-0.7,0.4-1.6,0.4-2.4,0.5c-7,0.5-9.1-2.1-9.8-9.4c-0.5-4.7,3.3-9.5,7.6-11.2c2.4-1,4.9-0.9,7.3,0
		c2.4,1,2.6,1.5,2.5,4.4C117.9,306.9,118,307.9,118.1,308.9z M114.3,311C114.3,311,114.2,311,114.3,311c0-1.3,0-2.7,0-4
		c-0.1-2.6-1.6-3.5-3.9-2.6c-4.9,1.9-6.6,7.3-4.8,11.9c0.8,2.1,3,3,5.3,2.5c2.6-0.5,3.5-1.7,3.5-4.4
		C114.3,313.3,114.3,312.1,114.3,311z"/>
	<path fill="#FFFFFF" d="M127.8,303.8c1.7-1.2,2.8-2.3,4.1-2.9c2.9-1.5,5.5-0.4,6.8,2.7c0.3,0.6,0.6,1.2,0.6,1.9
		c0.4,4.8,0.7,9.5,1,14.3c0,0.5,0.1,1.1-0.1,1.5c-0.5,0.6-1.1,1.4-1.7,1.5c-0.6,0-1.6-0.7-1.8-1.3c-0.5-1.9-0.9-3.9-1-5.9
		c-0.1-2.3,0.2-4.5,0.3-6.8c0-0.7,0.1-1.3-0.1-2c-0.5-2.5-2.5-3.3-4.3-1.5c-2.9,2.8-4.9,6.2-4.7,10.5c0.1,1.3,0.2,2.7,0.1,4
		c0,1.3-0.5,2.3-2,2.3c-1.6,0-1.8-1-1.8-2.4c0-3.5,0-7,0-10.5c0-2.3-0.1-4.7,0.1-7c0.1-0.8,1-1.5,1.6-2.3c0.7,0.6,1.6,1,2.2,1.7
		C127.6,302.1,127.5,302.9,127.8,303.8z"/>
	<path fill="#FFFFFF" d="M143.4,312.5c0.4-4,1-7.9,4.9-10.2c5-3,10.1-1.4,11.9,4.3c1,3.2,0.8,6.5-0.1,9.7c-1.2,3.9-5,6.7-8.5,6.3
		c-4.4-0.5-7.3-3.4-8.1-8.1C143.3,313.9,143.4,313.2,143.4,312.5z M157.4,311c-0.1-0.6-0.2-1.8-0.5-2.9c-1.1-3.3-3.7-4.2-6.6-2.1
		c-3.5,2.4-4,8.5-0.9,11.4c0.6,0.6,1.7,0.9,2.6,0.8C155.8,318.1,157.4,316,157.4,311z"/>
	<path fill="#FFFFFF" d="M183.1,297.5c-1.5,0.4-2.5,2.5-4.1,0.8c-1.1-1.1-0.7-2,1.6-3.9c1-0.9,2-1.7,3.2-2.4c0.8-0.5,1.9-1,2.7-0.7
		c0.5,0.2,0.9,1.6,0.9,2.4c0.1,2.7,0.1,5.3,0.1,8c-0.1,4.5-0.2,8.9-0.5,13.4c-0.1,1.7-0.3,2.9,2,3c0.7,0,1.4,1.1,2.1,1.6
		c-0.7,0.7-1.4,1.9-2.1,1.9c-3.1,0.1-6.2-0.1-9.2-0.3c-0.4,0-1.1-0.8-1.2-1.3c0-0.5,0.6-1.6,0.9-1.6c4.8,0,3.8-3.3,3.7-6.1
		C183.1,307.4,183.1,302.6,183.1,297.5z"/>
	<path fill="#FFFFFF" d="M92.6,306.1c0-4.2-0.1-8.3,0-12.5c0-1.1,0.4-2.2,0.9-3.3c0.2-0.4,1.1-0.9,1.6-0.8c0.5,0.1,1.2,0.8,1.3,1.3
		c0.3,1.1,0.3,2.3,0.3,3.5c-0.1,7.8-0.2,15.6-0.4,23.4c0,0.7,0,1.3-0.1,2C96,321,95.4,322,94,322c-1.7,0-1.7-1.3-1.7-2.5
		c0-4.5,0-9,0-13.5C92.3,306.1,92.5,306.1,92.6,306.1z"/>
	<path fill="#FFFFFF" d="M241.2,222.9c0-2.6,2-4.5,4.8-4.7c2.2-0.1,5,2.4,5.1,4.5c0.1,2-2.5,4.9-4.7,5
		C244,228,241.2,225.3,241.2,222.9z"/>
	<path fill="#FFFFFF" d="M81.3,311.5c0-2.8-0.1-5.6,0.1-8.4c0-0.7,1.2-1.2,1.8-1.8c0.5,0.6,1.3,1,1.5,1.7c0.3,1.1,0.2,2.2,0.3,3.4
		c0.1,3.6,0.1,7.2,0.1,10.8c0,0.7,0.2,1.5-0.1,2c-0.5,0.9-1.3,2.3-2.1,2.4c-1.3,0.2-1.7-1.2-1.7-2.5C81.2,316.5,81.2,314,81.3,311.5
		C81.2,311.5,81.3,311.5,81.3,311.5z"/>
	<path fill="#FFFFFF" d="M98.3,227.8c-2.2,0.1-4.9-2.4-5-4.6c-0.1-2.3,2.1-4.7,4.7-4.9c2.2-0.2,4.9,2.3,5,4.5
		C103.1,225,100.6,227.7,98.3,227.8z"/>
	<path fill="#FFFFFF" d="M86.8,294.6c-1.5,0.7-2.4,1.5-3.3,1.5c-0.7,0-1.7-0.9-1.9-1.7c-0.4-1.2,1.1-2.7,2.3-2.3
		C84.8,292.3,85.4,293.4,86.8,294.6z"/>
</g>
<g>
	<path fill="#FFFFFF" d="M252.9,109.9c0.3,7.1-0.8,15.3-3.1,23.4c-0.2,0.6-0.2,1.5-0.6,1.9c-0.5,0.5-1.5,1-2,0.9
		c-0.6-0.2-1.4-1.3-1.3-1.8c0.6-4.2,1.4-8.5,2.1-12.7c0.2-1.3,0.5-2.6,0.6-3.9c0.3-2.8,0.8-5.6,0.8-8.4c0-2.8-0.4-5.6-0.8-8.4
		c-0.5-3.6-1.1-7.2-1.9-10.7c-3.5-14.4-10.4-27.2-18.7-39.3c-5.5-8-11.7-15.4-18.8-21.9c-10.2-9.3-21.9-16.3-35.5-19
		c-5.7-1.1-11.6-1.8-17.8-0.8c-5.7,1-11.4,1.5-17,3.4c-13,4.3-25,10.7-35.9,19.1c-5.7,4.4-11.2,9-16,14.3C78.5,55,71.8,65.5,68,77.6
		c-1.7,5.5-2.8,11.2-2.8,17.1c-0.1,8.5,0.3,17,3.2,25.1c1.9,5.3,3.7,10.7,6.3,15.7c3.6,7.1,8.1,13.7,13.2,19.9
		c3.9,4.8,8.2,9.1,13.1,12.9c7.1,5.6,14.8,10,23.5,12.7c7,2.1,14.1,3.6,21.4,3.8c11.9,0.3,23.5-1.2,34.8-4.8
		c10.3-3.2,20.4-6.9,29.9-12.1c8.6-4.7,17-9.8,24.5-16.2c3.1-2.7,6.9-4.8,9.6-7.9c3.7-4.3,8.5-8.2,9.3-14.4c0.1-1,0.5-2,1-2.8
		c0.3-0.6,1.2-1.1,1.8-1.1c1.1,0,1,0.8,0.8,1.8c-1.5,6.8-4.5,12.9-9.6,17.6c-5.1,4.7-10.4,9.4-16,13.6c-9,6.9-18.9,12.4-29.2,17.1
		c-10.8,5-22.2,8.6-33.8,11.1c-3.9,0.8-7.9,0.8-11.9,1.2c-2.3,0.2-4.6,0.9-6.9,0.8c-14.7-0.7-29.1-3-41.9-10.8
		c-10-6.1-18.8-13.6-25.8-23.2c-6-8.2-11.1-17-15-26.3c-2.6-6.1-4.6-12.3-5.4-19c-0.4-4-0.8-7.9-0.8-11.9c-0.1-14.2,4.3-27,11.7-39
		c5.4-8.8,12-16.5,19.6-23.3c9.4-8.3,19.8-15.2,31.1-20.7c9.1-4.4,18.8-7.3,28.7-9c9.7-1.7,23.9,0.4,33.5,4.2
		c10.4,4.1,19.3,10.4,27.3,18.1c10.1,9.8,18.6,20.8,25.6,33c3.8,6.7,6.9,13.6,9.6,20.7C251.7,90,252.9,98.4,252.9,109.9z"/>
	<path fill="#FFFFFF" d="M194.3,123.1c-2.6-3.6-5.2-7.3-6.1-11.7c-0.1-0.3-0.2-0.6-0.3-0.9c-0.2,0.4-0.4,0.7-0.5,1.1
		c-0.7,2.5-1.4,5.1-2.2,7.6c-0.1,0.3-1,0.4-1.5,0.6c-0.2-0.4-0.6-1-0.5-1.3c1-4,1.7-8.1,3.2-11.8c0.9-2.3,0-2.7-1.5-3.1
		c-3.8-1.1-6-3.8-8.1-6.9c-4.7-7,0.2-17,6.4-19.8c1.7-0.8,3.6-1.3,5.5-0.3c0.3,0.1,0.9-0.5,1.4-0.7c3.5-2.1,6.7-4.8,11-5.1
		c1.1-0.1,0.8-0.6,0.3-1.2c-2.4-2.7-5.7-3.9-8.7-5.5c-1-0.5-1.7,0.2-1.5,1.1c1.1,3.7,0,7.2-1.1,10.7c-0.4-0.3-1-0.6-1-0.9
		c-0.1-3.8,0-7.7,0-11.5c0-1.3,0.7-1.9,1.9-1.7c1.1,0.1,2.4,0.2,3.3,0.7c3,1.8,5.9,3.6,8.7,5.7c1.8,1.3,3.3,2.6,5.7,2.8
		c1.2,0.1,2.6,0.7,3.6,1.5c2.9,2.4,5.7,5,8.5,7.6c0.5,0.4,0.8,1.1,1,1.7c2.1,6.6,5.1,13,5.3,19.9c0.2,5.5-1.1,11.2-4.6,15.9
		c-1.5,2-2.9,4.4-5,5.5c-3.1,1.8-2.2,4.2-2,6.5c0.1,1.5,0.7,2.9,0.8,4.3c0.1,0.9-0.4,1.5-1.6,1.3c-0.7-0.1-1.5,0.1-2.2,0.2
		c-1,0.1-2.2,1.7-2.8-0.2c-0.1-0.4,1.1-1.6,1.8-1.7c2.3-0.4,2.7-1.4,1.8-3.4c-0.3-0.6-0.1-1.3-0.1-2c0-1.3-0.4-1.8-1.8-1.2
		c-1.6,0.7-3.4,1.5-5.1,1.5c-3.4,0.1-6.3-1.7-9.1-3.5C196.3,124.1,195.3,123.7,194.3,123.1L194.3,123.1z M224.9,102
		c-0.4-2.4-0.7-4.9-1.3-7.3c-0.8-3.2-1.9-6.3-2.9-9.4c-0.3-1.1-0.2-2.5-0.8-3.3c-2-2.4-4.3-4.6-6.6-6.7c-0.8-0.7-2.3-0.8-3.5-1.1
		c0.5,1,1,2,1.4,3c0.4,0.7,0.8,1.5,1.1,2.2c0.5,1.3,0.1,2.4-1.1,3c-0.6,0.3-1.5,0.1-2.3,0.2c0.2-0.5,0.5-1,0.7-1.6
		c0.1-0.4,0.4-1,0.2-1.2c-1.2-2-2.4-4-3.8-5.8c-0.4-0.6-1.4-1-2.1-1c-4-0.4-7.4,1.2-10.6,3.4c-0.9,0.6-0.7,1.2,0,2
		c1.7,2,3.7,3.9,4.9,6.2c1.7,3.4,1.1,6.9,0.4,10.6c-0.8,3.7-2.2,6.3-5.7,7.7c-0.8,0.3-1.5,0.9-2.2,1.1c-1.4,0.4-1.4,1.4-1.1,2.3
		c0.5,1.7,1.4,3.4,1.7,5.1c1.4,6.4,5.5,10.6,11.2,13.1c2.9,1.3,6.3,1.3,9.2-0.5C219.8,119.1,224.6,112,224.9,102z M187.7,78.8
		c-4.2-0.5-6.8,1.5-8.5,4.9c-0.2,0.4-0.5,0.9-0.7,1.3c-3.9,7,1.4,15.2,8.6,16.7c2.8,0.6,5.3-1.1,7.8-2.6c2.1-1.2,0.9-2.9,1.3-4.4
		c0.2-0.6-0.1-1.4,0.1-2c2-5-0.5-8.5-3.6-11.9C191.4,79.2,189.6,78.6,187.7,78.8z"/>
	<path fill="#FFFFFF" d="M148.8,124.3c-2.4,2-4.8,4-7.2,6.1c-0.3,0.3-0.3,1.1-0.2,1.7c0.1,0.4,0.6,0.8,1,1.1
		c0.9,0.5,2.6,0.5,1.9,2.1c-0.6,1.3-3.4,1.4-4.5,0.4c-0.3-0.2-0.5-0.5-0.6-0.8c-0.4-0.7-1-2.2-1.1-2.2c-1.7,0.5-3.4,1.3-5,2.1
		c0,0,0.4,1.4,0.9,2c0.5,0.7,1.4,1.4,0.4,2c-0.6,0.4-1.8,0.1-2.7-0.2c-0.5-0.2-0.9-1-0.9-1.6c0-1.7-1.1-1.9-2.3-1.7
		c-0.9,0.1-2.1,0.3-2.5,0.9c-0.6,1,0.1,1.8,1.2,2.3c0.3,0.1,0.5,1,0.3,1.2c-0.2,0.3-1,0.7-1.2,0.5c-1-0.5-2.1-1-2.8-1.9
		c-1.5-1.7-3.4-2.8-4.9-2c-1,0.5-0.6,1.3,0,2.1c0.4,0.5,1.8,1.1,0.4,1.8c-0.7,0.3-1.9-0.1-2.8-0.4c-0.3-0.1-0.4-0.9-0.4-1.3
		c0.1-2.1-0.8-3-3-3.1c-4.2-0.2-7-3-9.4-6c-1.6-2-1.4-7.7,0.7-9.9c3.1-3.3,6.6-6.2,10.1-9c0.9-0.7,2.5-0.9,3.8-0.9
		c0.6,0,1.2,0.8,1.7,1.3c-0.4,0.4-0.8,1-1.3,1.2c-5.8,1.3-9.8,4.8-12.5,9.8c-2.1,3.7-1,7.3,2.6,9.4c2.2,1.3,4.4,2.1,7.1,2.1
		c6.3,0.1,12.6,0.1,18.7-2.1c5.4-1.9,9.6-5.4,12.6-10.1c1.9-3,0.2-8-3.1-9.6c-0.5-0.2-1.5,0.2-2.1,0.6c-2.1,1.3-4,3.1-6.1,4.2
		c-4.2,2.2-9.8,1.6-12.3-1.5c-3.1-3.7-4.4-8.1-2.8-13c1.9-5.9,7.6-7.6,13.4-6.8c5.6,0.7,9.3,4.4,10.3,10c0.4,2.2,1.1,3.7,3,5.2
		c3.5,2.9,3.7,7.2,2.7,11.5c-0.2,0.8-0.4,1.6-0.6,2.4C149.1,124,148.8,124.3,148.8,124.3z M131.5,98c-2.2-0.4-4.5,0.5-6.6,1.9
		c-1.9,1.3-1.9,2.2-0.6,4.4c0.2,0.4-0.1,1.1-0.3,1.6c0,0-0.3,0-0.5,0c-0.7,0.1-1.5-0.2-1.2,1.3c1.5,6.7,7.3,10.2,13.8,5.7
		c1.8-1.3,3.4-3,4.9-4.6c0.5-0.5,0.7-1.5,0.6-2.3C140.9,101.1,137.2,98,131.5,98z"/>
	<path fill="#FFFFFF" d="M149.1,124c0.6,0.2,1.3,0.2,1.9,0.5c0.8,0.5,1.5,0.8,1.9-0.3c0.5-1.2,0.8-2.5,1.4-3.7
		c0.9-1.7,2.9-2.2,4.1-0.6c1.3,1.7,2,3.7,3,5.6c0.4,0.7,0.8,1.4,1.3,2.1c0.2-0.7,0.4-1.5,0.5-2.2c0.1-1.2-0.1-2.3-0.1-3.5
		c0.1-4.7,1.7-6.6,6.4-7c1.4-0.1,1.6-0.7,1.6-1.9c0-5.4,0-10.7,0-16.1c0-0.5,0-1-0.1-1.5c-0.3-1.4-0.7-2.9-1.1-4.3
		c-1.2,0.8-2.5,1.5-3.7,2.3c-5,3.2-9.1,3.6-13.7-1.5c-1.5-1.7-1.8-1.6-2.5,0.6c-1,3.3-3.3,6.1-3.3,9.8c0,0.4-0.9,0.8-1.4,1.2
		c-0.3-0.6-0.9-1.2-0.9-1.8c0-0.9,0.1-1.9,0.5-2.8c1.4-3.3,2.8-6.6,4.2-10c0.2-0.5,0.2-1.2,0-1.7c-4.2-7.3,2.3-16,9-17.2
		c1.4-0.3,2.9-0.2,4.3,0.2c2.8,0.8,4.9,2.7,6.8,4.9c1.8,2,2.3,4.4,2,7c-0.4,4,0.4,7.9,1.5,11.8c0.3,1.1,0.4,2.3,0.4,3.4
		c0,6.4-0.1,12.8,0.1,19.1c0,1.8,0.8,3.5,0.9,5.3c0.2,2.4,1.1,2.5,2.8,1.3c0.2-0.1,0.8,0,0.9,0.2c0.2,0.4,0.4,1,0.2,1.3
		c-1,1.5-2.2,2.8-3.3,4.2c-1.9-1-1.4-3.2-2.4-4.7c-0.3-0.5-0.4-1.2-0.6-1.8c-0.5,0.5-0.9,0.9-1.4,1.4c-1.8,2-3.5,4-5.3,5.9
		c-0.8,0.9-1,1.7-0.2,2.7c0.5,0.7,0.6,2,2,0.9c0.2-0.1,1,0.3,1.1,0.6c0.1,0.4-0.1,1-0.4,1.3c-0.6,0.5-1.4,0.9-2,1.4
		c-1.2,0.8-2.1,1-2.4-0.9c-0.2-1-0.8-1.8-0.9-2.8c-0.3-1.7-0.9-1.6-2.4-1.2c-2.9,0.9-5.5-0.7-7.8-2.2c-1.8-1.2-3.6-2.6-3.1-5.3
		L149.1,124z M166.1,75.7L166.1,75.7c-0.6-0.4-1.2-1-1.8-1.4c-3.7-2.4-7.3-2.3-10.4,0.6c-1.7,1.6-2.9,3.6-3.4,5.9
		c-0.5,2.3,0.8,4.1,1.5,6.1c1,3,2.9,5.4,6.1,5.9c4,0.6,7.6-0.5,10.3-3.8c0.3-0.4,0.6-0.9,0.6-1.3C169.1,83.5,170,79,166.1,75.7z
		 M170.6,118.7c-0.7-0.7-1.1-1.3-1.6-1.4c-1.8-0.5-3.4,0.4-3.7,2.2c-0.3,1.8-0.6,3.5-0.8,5.3c0,0.2,0.3,0.6,0.5,0.8
		c0.2,0.2,0.7,0.3,0.8,0.2C167.4,123.4,168.9,121.1,170.6,118.7z M156.7,121.5c-0.3,0.1-0.7,0.2-0.8,0.4c-0.7,1.7-1.3,3.3-1.8,5
		c-0.1,0.2,0.1,0.8,0.3,0.8c1.5,0.5,3.1,0.9,4.7,1.3c0.2,0,0.8-0.7,0.7-1c-0.7-2-1.5-4-2.4-5.9C157.3,121.9,157,121.7,156.7,121.5z"
		/>
	<path fill="#FFFFFF" d="M101.3,102.9c0.4-4,0.9-7.9,1.2-11.9c0.2-1.9-0.3-3.4-1.3-5.2c-4.6-7.8,0.9-16.9,6.5-18.7
		c2.6-0.8,3.6-2.4,4.9-4.4c1.5-2.4,0.9-4.3-0.1-6.5c-1.6-3.6,0.2-5.9,4.5-5.7c0.5,0,0.9,0.3,1.4,0.5c-0.4,0.2-0.8,0.4-1.1,0.7
		c-0.9,0.6-2.2,1-2.7,1.9c-0.3,0.5,0.1,1.9,0.6,2.5c0.8,1,1.3,0.1,1.7-0.7c0.3-0.6,0.8-1.1,1.3-1.4c0.3-0.2,1.1-0.2,1.3,0.1
		c0.2,0.2,0.2,0.9,0.1,1.3c-0.8,1.6-3.2,2.7-1.5,4.9c1.1,1.4,2.5,2.6,3.7,3.9c0.3,0.3,0.5,0.8,0.8,1.2c-0.6,0.1-1.4,0.5-1.9,0.3
		c-1-0.6-1.8-1.4-2.7-2.2c-1.9-1.8-1.9-1.8-3.1,0.2c-4.3,7.4-7.3,15.2-8.4,23.6c-0.2,1.1-0.3,1.8,0.6,2.5c1.9,1.6,3.9,3.1,5.8,4.7
		c0.9,0.7,2,1.2,2.7,2.1c0.3,0.3,0.1,1.2,0.1,1.9c-0.6-0.1-1.2,0-1.7-0.3c-2.6-1.7-5.2-3.5-7.8-5.3c-1-0.7-1.3-0.5-1.4,0.7
		c-0.3,3.8-0.7,7.6-1,11.4c-0.2,2.9-0.1,5.7,2.1,7.9c0.6,0.6,0.7,1.2-0.1,1.6c-0.4,0.2-1.2,0.2-1.6-0.1c-2-1.8-2.4-4.3-2.7-6.7
		c-0.2-1.5,0-3,0-4.5C101.5,102.9,101.4,102.9,101.3,102.9z M101.6,80c0.4,1,1,2.5,1.6,4c0.1,0.3,0.5,0.5,0.8,0.6
		c0.1,0,0.4-0.4,0.5-0.6c0.7-4.7,2.2-9.2,4-13.6c0.1-0.3,0.1-0.6,0-0.9c0-0.1-0.6-0.1-0.8,0C104.2,71.8,102.5,75.3,101.6,80z"/>
	<path fill="#FFFFFF" d="M155.1,148.2c0.9,0.4,1.8,0.8,2.6,1.3c3.9,2.6,7.7,5.2,11.5,7.8c1.5,1,2.9,1.1,4.6,0.2
		c3.4-1.8,6.9-3.3,10.5-4.6c2.1-0.8,4.5-1,6.7-1.6c2.2-0.6,2.5-1.4,1.1-3.1c-2.2-2.5-4.7-4.7-7.1-7c-1.1-1-2.3-1.6-3,0.5
		c-0.1,0.2-1,0.5-1.2,0.3c-2.2-1.8-4.2-0.5-6.1,0.3c-4.1,1.7-8.4,2.5-12.7,3c-2,0.2-3.9,0.6-5.8,0.9c-0.3,0-0.6-0.3-0.9-0.4
		c0.2-0.2,0.5-0.5,0.8-0.6c2.7-1.2,5.7-1.7,8.6-2.3c5.3-1.2,10.5-2.7,15.7-4.3c2.5-0.8,4.3-0.3,6.4,1.2c3,2.1,5.5,4.3,7.1,7.5
		c0.2,0.4,0.4,1,0.7,1.3c0.8,0.6,1.8,1.1,2.7,1.6c-0.6,1-1.9,2-1.7,2.9c0.4,2.7-1.2,3.7-3.2,4.3c-6.9,2.1-13.2,5.4-19.3,9.1
		c-0.6,0.3-1.2,0.8-1.8,0.9c-1,0.2-2.1,0.3-2.1-1.3c0-1.2-0.3-2.8,0.4-3.4c2.1-2-0.1-2.6-1-3.3c-3.9-2.8-7.9-5.4-11.8-8.3
		c-0.8-0.6-1.2-1.8-1.8-2.8L155.1,148.2z M193.3,153.4c-4.7,0.9-9.5,1.4-13.7,3.9c-1.1,0.7-2.3,1.5-3.6,1.7
		c-3.2,0.4-4.2,2.8-5.2,5.2c-0.1,0.3-0.2,0.6-0.3,0.8c0.5,0,1,0.2,1.3,0c2.1-1.3,4-2.9,6.3-4c4.5-2.1,9.1-3.9,13.7-5.7
		C193,155,193.4,154.5,193.3,153.4c0.1-0.3,0.3-0.5,0.5-0.7C193.6,152.9,193.5,153.2,193.3,153.4z"/>
	<path fill="#FFFFFF" d="M142.9,57.6c-2.6,2.6-6.1,3.2-9.5,3.8c-4.7,0.8-10.9-3.5-13-8c-1.7-3.7-2.3-7.1-0.8-10.9
		c1.9-4.8,5.2-7.9,10.3-9.1c0.5-0.1,1-0.1,1.5-0.3c5.8-2.4,11.1,1.3,13.6,5.3c3.6,5.8,2.9,13.2-1.6,18.4
		C143.1,57,143,57.4,142.9,57.6L142.9,57.6z M141.9,38.5L141.9,38.5c-2.5-3.8-5.9-4-10.3-3.2c-6.6,1.3-11.3,6-9.9,14.1
		c0.7,4.5,3.1,7.3,7.1,8.6c4,1.2,8.2,1.5,11.8-1.6c4.4-3.8,5.8-8.4,3.9-13.9C143.9,41,143.9,39,141.9,38.5z"/>
	<path fill="#FFFFFF" d="M142.9,57.7c0.7,0.3,1.8,0.5,2,0.9c0.4,1.6,0.8,3.2,0.6,4.8c-0.3,2.9,0.6,5.7,0.9,8.5c0.3,2.3,0,5.2-1.3,7
		c-2.5,3.3-3.9,6.9-5.2,10.6c-0.5,1.4-1.2,2.7-2.1,3.9c-0.4,0.5-1.4,1.1-1.9,0.9c-0.9-0.3-0.7-1.2-0.3-2c0.8-1.8,1.6-3.6,2.3-5.4
		c0.2-0.6,0.3-1.2,0.5-1.7c-0.6,0-1.3-0.2-1.9,0c-5.3,1.4-10.1-0.2-13.2-4.4c-0.3-0.4-0.1-1.1-0.1-1.7c0.5,0,1-0.1,1.4,0.1
		c0.8,0.3,1.7,0.7,2.1,1.3c2.6,3.5,6.3,2.6,9.7,2.3c2.3-0.2,4.4-1.4,4.7-4.3c0.4-3.3,1.4-6.4,1.7-9.7
		C143.1,65,142.9,61.3,142.9,57.7L142.9,57.7z"/>
	<path fill="#FFFFFF" d="M165,53.3c0-7.1,5.2-12.7,11.8-12.8c7.1-0.1,13.5,6.1,13.5,13.1c0,6.2-7.3,12.8-14.5,13.1
		C170.4,66.8,165.1,60.2,165,53.3z M176.1,63.7c6.1,0.5,12.1-5,12-10.4c0-5.1-4.8-10.8-11.4-10.8c-5.8,0.1-9.7,4.2-9.6,10.2
		C167.2,59.2,170.9,63.7,176.1,63.7z"/>
	<path fill="#FFFFFF" d="M155,65.1c0.1-0.6,0.8-2.5,0.2-3.3c-1-1.3-2.9-2-4.5-2.9c-1.1-0.7-2.4-1.2-3.4-1.9
		c-0.3-0.2-0.3-0.9-0.2-1.4c0.2-1.1,0.9-0.5,1.4-0.2c1.3,0.7,2.8,1.2,4,2c1.4,0.9,2.7,2.8,4,2.7c1.3-0.1,2.4-2,3.7-3.1
		c0.4-0.3,0.9-0.5,1.4-0.5c0.5,0,0.9,0.3,1.4,0.4c-0.1,0.3-0.2,0.7-0.4,0.8c-3.4,1.4-4.1,4.6-5.2,7.5c-0.3,0.8-0.4,1.6-0.8,2.3
		c-0.2,0.3-0.7,0.5-1.1,0.7c-0.1-0.3-0.3-0.6-0.4-0.9C154.9,67,155,66.5,155,65.1z"/>
	<path fill="#FFFFFF" d="M194.3,123.1c1.5,3.1,0.4,6.4,0.9,9.5c0.1,0.5-0.8,1.4-1.4,1.6c-1.3,0.3-2.6,0.1-3.9,0.3
		c-0.8,0.1-1.7,0.8-1.6-0.6c0.1-0.6,0.9-1.6,1.3-1.6c2.8,0.3,2.9-1.4,2.8-3.4c-0.1-1.4-0.1-2.9,0.3-4.2
		C192.8,124.1,193.7,123.6,194.3,123.1L194.3,123.1z"/>
	<path fill="#FFFFFF" d="M154,153.5c0.3,0.1,0.7,0.1,0.9,0.3c4.2,3.8,7.8,8.4,12.9,11.1c0.2,0.1,0.3,0.8,0.2,0.9
		c-0.3,0.3-0.9,0.7-1.1,0.6c-2.3-1.4-4.6-2.7-6.6-4.4c-2.4-2-4.5-4.4-6.7-6.6c-0.3-0.3-0.3-0.9-0.3-1.4
		C153.2,153.7,153.7,153.6,154,153.5z"/>
	<path fill="#FFFFFF" d="M179.3,149.6c-0.8,0.8-1.7,1.7-2.6,2.6c-0.5-0.6-1-1.2-1.5-1.8c1.1-0.7,2.3-1.3,3.4-2
		C178.6,148.5,178.9,149,179.3,149.6z"/>
	<path fill="#FFFFFF" d="M164,149.8c-0.3,0.2-0.7,0.3-1.1,0.5c-0.1-0.3-0.4-0.8-0.3-0.9c0.3-0.3,0.7-0.4,1.1-0.6
		C163.8,149,163.9,149.3,164,149.8z"/>
	<path fill="#FFFFFF" d="M153.6,150.7c0.1,0.3,0.3,0.6,0.3,0.9c0,0.2-0.3,0.3-0.5,0.5c-0.1-0.3-0.3-0.6-0.3-0.9
		C153.1,151,153.4,150.8,153.6,150.7z"/>
	<path fill="#FFFFFF" d="M154.9,148.4c-0.2-0.2-0.5-0.4-0.7-0.6c0.3,0.1,0.6,0.3,0.9,0.4L154.9,148.4z"/>
	<path fill="#FFFFFF" d="M211.5,97.5c0.9,1,1.6,1.5,1.8,2.1c0.5,2.2,0.8,4.5,1.2,6.8c0.2,1,0.3,2,0.7,2.9c0.5,1.3-0.1,2.1-1,2.3
		c-0.4,0.1-1.5-1.2-1.6-1.9c-0.7-3.2-1.1-6.5-1.5-9.7C210.9,99.4,211.2,98.8,211.5,97.5z"/>
	<path fill="#FFFFFF" d="M182.2,95.4c-0.5,0.2-0.9,0.5-1,0.4c-0.7-0.6-1.3-1.2-1.9-1.9c-0.1-0.1,0.2-0.5,0.4-0.8
		C180.5,93.8,181.3,94.6,182.2,95.4z"/>
	<path fill="#FFFFFF" d="M194.3,91.8c-0.3,0.4-0.4,0.6-0.6,0.8c-0.4-0.4-0.8-0.9-1.1-1.3c0.3-0.1,0.6-0.3,0.8-0.2
		C193.8,91.2,194.1,91.5,194.3,91.8z"/>
	<path fill="#FFFFFF" d="M181.5,82.2c0.3-0.1,0.6-0.3,0.8-0.2c0.2,0,0.3,0.3,0.5,0.5c-0.3,0.1-0.5,0.3-0.8,0.3
		C181.9,82.7,181.7,82.4,181.5,82.2z"/>
	<path fill="#FFFFFF" d="M135.6,109c-1-0.6-1.8-0.9-2.4-1.5c-0.2-0.1,0-1,0.2-1.2c0.3-0.3,0.9-0.3,1.4-0.4c0.8-0.2,1.6-1.5,2.5-0.1
		c0.1,0.2,0.3,0.7,0.2,0.8C136.9,107.5,136.2,108.3,135.6,109z"/>
	<path fill="#FFFFFF" d="M136.7,101.7c-0.4-0.3-0.8-0.4-0.8-0.5c0.1-0.4,0.3-0.7,0.4-1.1c0.1,0.1,0.3,0.2,0.3,0.3
		C136.7,100.8,136.7,101.2,136.7,101.7z"/>
	<path fill="#FFFFFF" d="M153.3,78.7c0.4,0.8,0.7,1.2,0.6,1.5c-0.1,0.5-0.6,1-0.9,1.4c-0.3-0.2-1-0.6-1-0.7
		C152.4,80.3,152.8,79.7,153.3,78.7z"/>
	<path fill="#FFFFFF" d="M161.2,80.5c-0.9,0.5-1.3,0.9-1.9,0.9c-0.3,0-0.6-0.6-0.9-0.9c0.5-0.2,0.9-0.6,1.4-0.7
		C160.1,79.7,160.5,80.1,161.2,80.5z"/>
	<path fill="#FFFFFF" d="M166.1,75.7c0,0.2,0,0.4-0.1,0.5c-0.5,0.4-1,0.9-1.5,1.3c-0.1-0.3-0.4-0.8-0.3-0.8
		C164.8,76.3,165.5,76.1,166.1,75.7L166.1,75.7z"/>
	<path fill="#FFFFFF" d="M135.7,44.6c0.1,1.9-2,3.9-3.7,3.7c-0.7-0.1-1.3-1.5-1.8-2.4c0-0.1,0.9-0.7,1.3-1.1c1,2.3,1.6,1,2.3-0.2
		c0.2-0.3,0.7-0.6,0.9-0.5C135.2,44.2,135.6,44.6,135.7,44.6z"/>
	<path fill="#FFFFFF" d="M141.9,38.5c0,0.3,0.1,0.7-0.1,1c-0.2,0.4-0.5,0.8-0.9,0.9c-0.3,0-0.6-0.5-0.9-0.8c0.3-0.3,0.6-0.7,0.9-0.9
		C141.2,38.5,141.6,38.5,141.9,38.5L141.9,38.5z"/>
	<path fill="#FFFFFF" d="M127.8,37.7c0.4,0.2,0.7,0.3,0.9,0.4c-0.2,0.5-0.5,0.9-0.8,1.3c-0.1,0.1-0.5-0.1-0.8-0.2
		C127.4,38.7,127.6,38.2,127.8,37.7z"/>
	<path fill="#FFFFFF" d="M175.3,59.2c-0.8,0.6-1.4,1.4-1.7,1.3c-0.8-0.3-1.4-1-2-1.6c0.4-0.3,0.8-1,1-0.9
		C173.4,58.2,174.2,58.7,175.3,59.2z"/>
	<path fill="#FFFFFF" d="M169.6,52.9c0.1,0.2,0.4,0.5,0.4,0.7c0,0.2-0.3,0.5-0.4,0.7c-0.1-0.3-0.4-0.5-0.4-0.8
		C169.2,53.3,169.5,53.1,169.6,52.9z"/>
	<path fill="#FFFFFF" d="M181.9,58.2c-0.3,0.1-0.5,0.3-0.8,0.3c-0.2,0-0.3-0.3-0.5-0.5c0.3-0.1,0.5-0.3,0.8-0.3
		C181.6,57.7,181.7,58.1,181.9,58.2z"/>
</g>
</svg>
