<?xml version="1.0" encoding="utf-8"?>
<!-- Generator: Adobe Illustrator 18.0.0, SVG Export Plug-In . SVG Version: 6.00 Build 0)  -->
<!DOCTYPE svg PUBLIC "-//W3C//DTD SVG 1.1//EN" "http://www.w3.org/Graphics/SVG/1.1/DTD/svg11.dtd">
<svg version="1.1" id="Layer_1" xmlns="http://www.w3.org/2000/svg" xmlns:xlink="http://www.w3.org/1999/xlink" x="0px" y="0px"
	 viewBox="0 0 243.2 161.9" enable-background="new 0 0 243.2 161.9" xml:space="preserve">
<rect x="4.5" y="45.1" fill="#292929" width="104.7" height="113.9"/>
<path fill="none" stroke="#FFFFFF" stroke-width="0.5272" stroke-linecap="round" stroke-linejoin="round" stroke-miterlimit="10" d="
	M32.1,26.1h11.1v15 M4.5,45.1h104.7v113.9H4.5V45.1z"/>
<polyline fill="#FFFFFF" points="43.2,44.1 44.3,41.2 42.1,41.2 "/>
<polygon fill="none" stroke="#FFFFFF" stroke-width="0.5272" stroke-miterlimit="10" points="43.2,44.1 44.3,41.2 42.1,41.2 "/>
<path fill="#BEBEBE" d="M14,62.6l0.7-1l-0.7-0.7l-1,0.7c-0.2-0.1-0.4-0.2-0.6-0.2l-0.2-1.2h-1.1l-0.2,1.2c-0.2,0.1-0.4,0.1-0.6,0.2
	l-1-0.7l-0.7,0.7l0.7,1c-0.1,0.2-0.2,0.4-0.2,0.6L8,63.3v1.1l1.2,0.2c0.1,0.2,0.1,0.4,0.2,0.6l-0.7,1l0.7,0.7l1-0.7
	c0.2,0.1,0.4,0.2,0.6,0.2l0.2,1.2h1.1l0.2-1.2c0.2-0.1,0.4-0.1,0.6-0.2l1,0.7l0.7-0.7l-0.7-1c0.1-0.2,0.2-0.4,0.2-0.6l1.2-0.2v-1.1
	l-1.2-0.2C14.1,62.9,14.1,62.7,14,62.6 M11.7,64.9c-0.6,0-1.1-0.5-1.1-1.1s0.5-1.1,1.1-1.1c0.6,0,1.1,0.5,1.1,1.1
	S12.2,64.9,11.7,64.9 M24.8,57v-1.1l-1.1-0.2c0-0.1,0-0.3-0.1-0.4l0.9-0.6l-0.4-1L23.1,54c-0.1-0.1-0.1-0.2-0.2-0.3l0.6-0.9L22.8,52
	l-0.9,0.6c-0.1-0.1-0.2-0.2-0.3-0.2l0.2-1.1l-1-0.4l-0.6,0.9c-0.1,0-0.3-0.1-0.4-0.1l-0.2-1.1h-1.1l-0.2,1.1c-0.1,0-0.3,0-0.4,0.1
	l-0.6-0.9l-1,0.4l0.2,1.1c-0.1,0.1-0.2,0.1-0.3,0.2L15.3,52l-0.7,0.7l0.6,0.9c-0.1,0.1-0.2,0.2-0.2,0.3l-1.1-0.2l-0.4,1l0.9,0.6
	c0,0.1-0.1,0.3-0.1,0.4l-1.1,0.2V57l1.1,0.2c0,0.1,0,0.3,0.1,0.4l-0.9,0.6l0.4,1l1.1-0.2c0.1,0.1,0.1,0.2,0.2,0.3l-0.6,0.9l0.7,0.7
	l0.9-0.6c0.1,0.1,0.2,0.2,0.3,0.2l-0.2,1.1l1,0.4l0.6-0.9c0.1,0,0.3,0.1,0.4,0.1l0.2,1.1h1.1l0.2-1.1c0.1,0,0.3,0,0.4-0.1l0.6,0.9
	l1-0.4l-0.2-1.1c0.1-0.1,0.2-0.1,0.3-0.2l0.9,0.6l0.7-0.7l-0.6-0.9c0.1-0.1,0.2-0.2,0.2-0.3l1.1,0.2l0.4-1l-0.9-0.6
	c0-0.1,0.1-0.3,0.1-0.4L24.8,57z M19,58.8c-1.3,0-2.3-1-2.3-2.3c0-1.3,1-2.3,2.3-2.3c1.3,0,2.3,1,2.3,2.3
	C21.3,57.7,20.3,58.8,19,58.8"/>
<text transform="matrix(1 0 0 1 23.0679 54.8865)" fill="#FFFFFF" font-family="'HelveticaNeue'" font-size="7.3856">  Readactor Compiler</text>
<path d="M17.6,69.5h77c1.5,0,2.6,1.2,2.6,2.6v17.2c0,1.5-1.2,2.6-2.6,2.6h-77c-1.5,0-2.6-1.2-2.6-2.6V72.1
	C15,70.7,16.2,69.5,17.6,69.5"/>
<path fill="none" stroke="#FFFFFF" stroke-width="0.5272" stroke-linecap="round" stroke-linejoin="round" stroke-miterlimit="10" d="
	M17.6,69.5h77c1.5,0,2.6,1.2,2.6,2.6v17.2c0,1.5-1.2,2.6-2.6,2.6h-77c-1.5,0-2.6-1.2-2.6-2.6V72.1C15,70.7,16.2,69.5,17.6,69.5z"/>
<text transform="matrix(1 0 0 1 25.6773 82.8093)" fill="#FFFFFF" font-family="'Helvetica'" font-size="6.3305">Code-data separation</text>
<path d="M17.6,100.2h77c1.5,0,2.6,1.2,2.6,2.6V120c0,1.5-1.2,2.6-2.6,2.6h-77c-1.5,0-2.6-1.2-2.6-2.6v-17.2
	C15,101.4,16.2,100.2,17.6,100.2"/>
<path fill="none" stroke="#FFFFFF" stroke-width="0.5272" stroke-linecap="round" stroke-linejoin="round" stroke-miterlimit="10" d="
	M17.6,100.2h77c1.5,0,2.6,1.2,2.6,2.6V120c0,1.5-1.2,2.6-2.6,2.6h-77c-1.5,0-2.6-1.2-2.6-2.6v-17.2C15,101.4,16.2,100.2,17.6,100.2z
	"/>
<text transform="matrix(1 0 0 1 28.4976 113.509)" fill="#FFFFFF" font-family="'Helvetica'" font-size="6.3305">Code diversiﬁcation</text>
<path d="M17.6,130.9h77c1.5,0,2.6,1.2,2.6,2.6v17.2c0,1.5-1.2,2.6-2.6,2.6h-77c-1.5,0-2.6-1.2-2.6-2.6v-17.2
	C15,132.1,16.2,130.9,17.6,130.9"/>
<path fill="none" stroke="#FFFFFF" stroke-width="0.5272" stroke-linecap="round" stroke-linejoin="round" stroke-miterlimit="10" d="
	M17.6,130.9h77c1.5,0,2.6,1.2,2.6,2.6v17.2c0,1.5-1.2,2.6-2.6,2.6h-77c-1.5,0-2.6-1.2-2.6-2.6v-17.2C15,132.1,16.2,130.9,17.6,130.9
	z"/>
<text transform="matrix(1 0 0 1 28.4927 144.2082)" fill="#FFFFFF" font-family="'Helvetica'" font-size="6.3305">Code-pointer hiding</text>
<line fill="none" stroke="#FFFFFF" stroke-width="0.5272" stroke-linecap="round" stroke-linejoin="round" stroke-miterlimit="10" x1="57.4" y1="91.9" x2="57.4" y2="97.3"/>
<polyline fill="#FFFFFF" points="57.4,100.2 58.5,97.3 56.3,97.3 "/>
<polygon fill="none" stroke="#FFFFFF" stroke-width="0.5272" stroke-miterlimit="10" points="57.4,100.2 58.5,97.3 56.3,97.3 "/>
<line fill="none" stroke="#FFFFFF" stroke-width="0.5272" stroke-linecap="round" stroke-linejoin="round" stroke-miterlimit="10" x1="56.9" y1="122.6" x2="56.9" y2="128"/>
<polyline fill="#FFFFFF" points="56.9,130.9 58,128 55.8,128 "/>
<polygon fill="none" stroke="#FFFFFF" stroke-width="0.5272" stroke-miterlimit="10" points="56.9,130.9 58,128 55.8,128 "/>
<rect x="3.7" y="10.3" width="25.1" height="32.5"/>
<rect x="3.7" y="10.3" fill="none" stroke="#FFFFFF" stroke-width="0.5272" stroke-linecap="round" stroke-linejoin="round" stroke-miterlimit="10" width="25.1" height="32.5"/>
<rect x="22.6" y="9.8" width="7" height="7.2"/>
<polyline points="21.9,10.3 28.9,17.5 21.9,17.5 "/>
<polygon fill="none" stroke="#FFFFFF" stroke-width="0.5272" stroke-linecap="round" stroke-linejoin="round" stroke-miterlimit="10" points="
	21.9,10.3 28.9,17.5 21.9,17.5 "/>
<text transform="matrix(1 0 0 1 6.2682 21.0373)" fill="#606060" font-family="'HelveticaNeue'" font-size="2.1101">// my ﬁrst program </text>
<text transform="matrix(1 0 0 1 6.2682 23.6751)" fill="#606060" font-family="'HelveticaNeue'" font-size="2.1101">#include &lt;iostream&gt;</text>
<text transform="matrix(1 0 0 1 6.2682 28.9501)" fill="#606060" font-family="'HelveticaNeue'" font-size="2.1101">int main()</text>
<text transform="matrix(1 0 0 1 6.2682 31.5879)" fill="#606060" font-family="'HelveticaNeue'" font-size="2.1101">{</text>
<text transform="matrix(1 0 0 1 6.2682 34.226)" fill="#606060" font-family="'HelveticaNeue'" font-size="2.1101">  std::cout &lt;&lt; </text>
<text transform="matrix(1 0 0 1 6.2682 36.8633)" fill="#606060" font-family="'HelveticaNeue'" font-size="2.1101">&quot;Hello World!&quot;;</text>
<text transform="matrix(1 0 0 1 6.2682 39.5011)" fill="#606060" font-family="'HelveticaNeue'" font-size="2.1101">}</text>
<rect x="6.3" y="7.7" width="25.1" height="32.5"/>
<rect x="6.3" y="7.7" fill="none" stroke="#FFFFFF" stroke-width="0.5272" stroke-linecap="round" stroke-linejoin="round" stroke-miterlimit="10" width="25.1" height="32.5"/>
<rect x="25.1" y="6.9" width="7" height="7.2"/>
<polyline points="24.5,7.6 31.5,14.9 24.5,14.9 "/>
<polygon fill="none" stroke="#FFFFFF" stroke-width="0.5272" stroke-linecap="round" stroke-linejoin="round" stroke-miterlimit="10" points="
	24.5,7.6 31.5,14.9 24.5,14.9 "/>
<polyline fill="none" stroke="#FFFFFF" stroke-width="0.5272" stroke-linecap="round" stroke-linejoin="round" stroke-miterlimit="10" points="
	103.3,45.1 103.3,26.1 160.8,26.1 "/>
<polyline fill="#FFFFFF" points="163.7,26.1 160.8,25 160.8,27.2 "/>
<polygon fill="none" stroke="#FFFFFF" stroke-width="0.5272" stroke-miterlimit="10" points="163.7,26.1 160.8,25 160.8,27.2 "/>
<text transform="matrix(1 0 0 1 122.8443 14.5285)" fill="#FFFFFF" font-family="'Helvetica'" font-size="6.3305">Readacted </text>
<text transform="matrix(1 0 0 1 122.6665 21.9167)" fill="#FFFFFF" font-family="'Helvetica'" font-size="6.3305">Application</text>
<rect x="122.3" y="45.1" fill="#292929" width="118.7" height="80.7"/>
<rect x="122.3" y="45.1" fill="none" stroke="#FFFFFF" stroke-width="0.5272" stroke-linecap="round" stroke-linejoin="round" stroke-miterlimit="10" width="118.7" height="80.7"/>
<text transform="matrix(1 0 0 1 143.8453 54.8865)"><tspan x="0" y="0" fill="#FFFFFF" font-family="'HelveticaNeue'" font-size="7.3856">  Readacted P</tspan><tspan x="46.9" y="0" fill="#FFFFFF" font-family="'HelveticaNeue'" font-size="7.3856">r</tspan><tspan x="49.3" y="0" fill="#FFFFFF" font-family="'HelveticaNeue'" font-size="7.3856">ocess</tspan></text>
<path d="M165.6,14.2H193c0.3,0,0.5,0.2,0.5,0.5v20.3c0,0.3-0.2,0.5-0.5,0.5h-27.4c-0.3,0-0.5-0.2-0.5-0.5V14.8
	C165.1,14.5,165.3,14.2,165.6,14.2"/>
<path fill="none" stroke="#FFFFFF" stroke-width="0.5272" stroke-linecap="round" stroke-linejoin="round" stroke-miterlimit="10" d="
	M165.6,14.2H193c0.3,0,0.5,0.2,0.5,0.5v20.3c0,0.3-0.2,0.5-0.5,0.5h-27.4c-0.3,0-0.5-0.2-0.5-0.5V14.8
	C165.1,14.5,165.3,14.2,165.6,14.2z"/>
<polyline points="193.5,14.3 190,7.1 168.6,7.1 165.1,14.3 "/>
<polygon fill="none" stroke="#FFFFFF" stroke-width="0.5272" stroke-linecap="round" stroke-linejoin="round" stroke-miterlimit="10" points="
	193.5,14.3 190,7.1 168.6,7.1 165.1,14.3 "/>
<rect x="122.3" y="130.6" fill="#292929" width="118.7" height="28.5"/>
<rect x="122.3" y="130.6" fill="none" stroke="#FFFFFF" stroke-width="0.5272" stroke-linecap="round" stroke-linejoin="round" stroke-miterlimit="10" width="118.7" height="28.5"/>
<text transform="matrix(1 0 0 1 138.7583 143.2497)" fill="#FFFFFF" font-family="'Helvetica-Bold'" font-size="6.3305">Kernel with Readactor Patch</text>
<text transform="matrix(1 0 0 1 129.358 150.6374)"><tspan x="0" y="0" fill="#FFFFFF" font-family="'Helvetica'" font-size="6.3305">using Page</tspan><tspan x="31.7" y="0" fill="#FFFFFF" font-family="'Helvetica'" font-size="6.3305"> </tspan><tspan x="33.3" y="0" fill="#FFFFFF" font-family="'Helvetica'" font-size="6.3305">T</tspan><tspan x="36.5" y="0" fill="#FFFFFF" font-family="'Helvetica'" font-size="6.3305">able </tspan><tspan x="50.2" y="0" fill="#FFFFFF" font-family="'Helvetica'" font-size="6.3305">V</tspan><tspan x="54.3" y="0" fill="#FFFFFF" font-family="'Helvetica'" font-size="6.3305">irtualization (EPT)</tspan></text>
<line fill="none" stroke="#FFFFFF" stroke-width="0.5272" stroke-linecap="round" stroke-linejoin="round" stroke-miterlimit="10" stroke-dasharray="4.2208,2.6381" x1="156.4" y1="64.1" x2="156.4" y2="121.1"/>
<path d="M126,73.6h24.2c0.3,0,0.5,0.2,0.5,0.5v17.9c0,0.3-0.2,0.5-0.5,0.5H126c-0.3,0-0.5-0.2-0.5-0.5V74.1
	C125.5,73.9,125.8,73.6,126,73.6"/>
<path fill="none" stroke="#FFFFFF" stroke-width="0.5272" stroke-linecap="round" stroke-linejoin="round" stroke-miterlimit="10" d="
	M126,73.6h24.2c0.3,0,0.5,0.2,0.5,0.5v17.9c0,0.3-0.2,0.5-0.5,0.5H126c-0.3,0-0.5-0.2-0.5-0.5V74.1C125.5,73.9,125.8,73.6,126,73.6z
	"/>
<text transform="matrix(1 0 0 1 131.5435 81.5276)" fill="#FFFFFF" font-family="'HelveticaNeue'" font-size="6.3305">Data</text>
<text transform="matrix(1 0 0 1 128.4361 88.9148)" fill="#FFFFFF" font-family="'HelveticaNeue'" font-size="6.3305">page 1</text>
<text transform="matrix(1 0 0 1 122.8892 68.0749)"><tspan x="0" y="0" fill="#FFFFFF" font-family="'HelveticaNeue'" font-size="6.3305">Read-writ</tspan><tspan x="27.7" y="0" fill="#FFFFFF" font-family="'HelveticaNeue'" font-size="6.3305" letter-spacing="5">e</tspan><tspan x="36.7" y="0" fill="#FFFFFF" font-family="'HelveticaNeue'" font-size="6.3305">Execute-only </tspan></text>
<path d="M126,102.1h24.2c0.3,0,0.5,0.2,0.5,0.5v17.9c0,0.3-0.2,0.5-0.5,0.5H126c-0.3,0-0.5-0.2-0.5-0.5v-17.9
	C125.5,102.3,125.8,102.1,126,102.1"/>
<path fill="none" stroke="#FFFFFF" stroke-width="0.5272" stroke-linecap="round" stroke-linejoin="round" stroke-miterlimit="10" d="
	M126,102.1h24.2c0.3,0,0.5,0.2,0.5,0.5v17.9c0,0.3-0.2,0.5-0.5,0.5H126c-0.3,0-0.5-0.2-0.5-0.5v-17.9
	C125.5,102.3,125.8,102.1,126,102.1z"/>
<text transform="matrix(1 0 0 1 131.5435 110.0149)" fill="#FFFFFF" font-family="'HelveticaNeue'" font-size="6.3305">Data</text>
<text transform="matrix(1 0 0 1 128.4361 117.4026)" fill="#FFFFFF" font-family="'HelveticaNeue'" font-size="6.3305">page n</text>
<text transform="matrix(1 0 0 1 135.7974 101.0461)" fill="#FFFFFF" font-family="'AppleBraille'" font-size="8.4408">⠇</text>
<path d="M212.6,73.6h24.2c0.3,0,0.5,0.2,0.5,0.5v17.9c0,0.3-0.2,0.5-0.5,0.5h-24.2c-0.3,0-0.5-0.2-0.5-0.5V74.1
	C212.1,73.9,212.3,73.6,212.6,73.6"/>
<path fill="none" stroke="#FFFFFF" stroke-width="0.5272" stroke-linecap="round" stroke-linejoin="round" stroke-miterlimit="10" d="
	M212.6,73.6h24.2c0.3,0,0.5,0.2,0.5,0.5v17.9c0,0.3-0.2,0.5-0.5,0.5h-24.2c-0.3,0-0.5-0.2-0.5-0.5V74.1
	C212.1,73.9,212.3,73.6,212.6,73.6z"/>
<text transform="matrix(1 0 0 1 217.0591 81.5276)" fill="#FFFFFF" font-family="'HelveticaNeue'" font-size="6.3305">Code</text>
<text transform="matrix(1 0 0 1 215.0025 88.9148)" fill="#FFFFFF" font-family="'HelveticaNeue'" font-size="6.3305">page 1</text>
<path d="M212.6,102.1h24.2c0.3,0,0.5,0.2,0.5,0.5v17.9c0,0.3-0.2,0.5-0.5,0.5h-24.2c-0.3,0-0.5-0.2-0.5-0.5v-17.9
	C212.1,102.3,212.3,102.1,212.6,102.1"/>
<path fill="none" stroke="#FFFFFF" stroke-width="0.5272" stroke-linecap="round" stroke-linejoin="round" stroke-miterlimit="10" d="
	M212.6,102.1h24.2c0.3,0,0.5,0.2,0.5,0.5v17.9c0,0.3-0.2,0.5-0.5,0.5h-24.2c-0.3,0-0.5-0.2-0.5-0.5v-17.9
	C212.1,102.3,212.3,102.1,212.6,102.1z"/>
<text transform="matrix(1 0 0 1 217.0591 110.0149)" fill="#FFFFFF" font-family="'HelveticaNeue'" font-size="6.3305">Code</text>
<text transform="matrix(1 0 0 1 215.0025 117.4026)" fill="#FFFFFF" font-family="'HelveticaNeue'" font-size="6.3305">page n</text>
<text transform="matrix(1 0 0 1 222.3667 101.0461)" fill="#FFFFFF" font-family="'AppleBraille'" font-size="8.4408">⠇</text>
<path d="M165.6,83.1h32.2c0.3,0,0.5,0.2,0.5,0.5v27.4c0,0.3-0.2,0.5-0.5,0.5h-32.2c-0.3,0-0.5-0.2-0.5-0.5V83.6
	C165.1,83.3,165.3,83.1,165.6,83.1"/>
<path fill="none" stroke="#FFFFFF" stroke-width="0.5272" stroke-linecap="round" stroke-linejoin="round" stroke-miterlimit="10" d="
	M165.6,83.1h32.2c0.3,0,0.5,0.2,0.5,0.5v27.4c0,0.3-0.2,0.5-0.5,0.5h-32.2c-0.3,0-0.5-0.2-0.5-0.5V83.6
	C165.1,83.3,165.3,83.1,165.6,83.1z"/>
<text transform="matrix(1 0 0 1 165.983 99.4631)"><tspan x="0" y="0" fill="#FFFFFF" font-family="'HelveticaNeue'" font-size="5.803">T</tspan><tspan x="2.8" y="0" fill="#FFFFFF" font-family="'HelveticaNeue'" font-size="5.803">rampolines</tspan></text>
<line fill="none" stroke="#FFFFFF" stroke-width="0.5272" stroke-linecap="round" stroke-linejoin="round" stroke-miterlimit="10" x1="202.6" y1="86.6" x2="208.2" y2="86.6"/>
<polyline fill="#FFFFFF" points="211.1,86.6 208.2,85.5 208.2,87.7 "/>
<polygon fill="none" stroke="#FFFFFF" stroke-width="0.5272" stroke-miterlimit="10" points="211.1,86.6 208.2,85.5 208.2,87.7 "/>
<polyline fill="#FFFFFF" points="199.7,86.6 202.6,87.7 202.6,85.5 "/>
<polygon fill="none" stroke="#FFFFFF" stroke-width="0.5272" stroke-miterlimit="10" points="199.7,86.6 202.6,87.7 202.6,85.5 "/>
<line fill="none" stroke="#FFFFFF" stroke-width="0.5272" stroke-linecap="round" stroke-linejoin="round" stroke-miterlimit="10" x1="202.6" y1="105.6" x2="208.2" y2="105.6"/>
<polyline fill="#FFFFFF" points="211.1,105.6 208.2,104.5 208.2,106.7 "/>
<polygon fill="none" stroke="#FFFFFF" stroke-width="0.5272" stroke-miterlimit="10" points="211.1,105.6 208.2,104.5 208.2,106.7 
	"/>
<polyline fill="#FFFFFF" points="199.7,105.6 202.6,106.7 202.6,104.5 "/>
<polygon fill="none" stroke="#FFFFFF" stroke-width="0.5272" stroke-miterlimit="10" points="199.7,105.6 202.6,106.7 202.6,104.5 
	"/>
<polyline fill="none" stroke="#FFFFFF" stroke-width="0.5272" stroke-linecap="round" stroke-linejoin="round" stroke-miterlimit="10" points="
	193.5,26.1 204.6,26.1 204.6,41.2 "/>
<polyline fill="#FFFFFF" points="204.6,44.1 205.7,41.2 203.5,41.2 "/>
<polygon fill="none" stroke="#FFFFFF" stroke-width="0.5272" stroke-miterlimit="10" points="204.6,44.1 205.7,41.2 203.5,41.2 "/>
<path fill="#FFFFFF" d="M182.2,20c-1.8,0-2.7-1.8-2.7-1.8l-2.7,1.8c-1.8,0-3.6-2.7-3.6-2.7v6.2c0,2.7,1.8,6.2,6.2,8
	c4.5-1.8,6.2-5.3,6.2-8v-6.2L182.2,20 M184,23.6c0,2-1.4,4.6-4.5,6.1c-3.1-1.5-4.5-4.1-4.5-6.1v-2.2c0.6,0.3,1.1,0.4,1.8,0.4
	c1.1,0,2-0.4,2.7-0.9c0.7,0.5,1.6,0.9,2.7,0.9c0.6,0,1.2-0.2,1.8-0.4V23.6z"/>
<path fill="#FFFFFF" d="M179.6,28.6c2.5-1.3,3.6-3.5,3.6-5.1v-1c-0.3,0.1-0.6,0.1-0.9,0.1C181.3,22.7,180.4,22.4,179.6,28.6"/>
<text transform="matrix(1 0 0 1 8.3716 24.0246)" fill="#FFFFFF" font-family="'Helvetica'" font-size="6.3305">Source </text>
<text transform="matrix(1 0 0 1 10.8355 31.4123)" fill="#FFFFFF" font-family="'Helvetica'" font-size="6.3305">Code</text>
<line fill="none" stroke="#FFFFFF" stroke-width="0.5272" stroke-linecap="round" stroke-linejoin="round" stroke-miterlimit="10" stroke-dasharray="2.1099,2.1099" x1="150.8" y1="86.6" x2="161.1" y2="86.6"/>
<polyline fill="#FFFFFF" points="164.1,86.6 161.1,85.5 161.1,87.7 "/>
<polygon fill="none" stroke="#FFFFFF" stroke-width="0.5272" stroke-miterlimit="10" points="164.1,86.6 161.1,85.5 161.1,87.7 "/>
<line fill="none" stroke="#FFFFFF" stroke-width="0.5272" stroke-linecap="round" stroke-linejoin="round" stroke-miterlimit="10" stroke-dasharray="2.1099,2.1099" x1="150.8" y1="105.6" x2="161.1" y2="105.6"/>
<polyline fill="#FFFFFF" points="164.1,105.6 161.1,104.5 161.1,106.7 "/>
<polygon fill="none" stroke="#FFFFFF" stroke-width="0.5272" stroke-miterlimit="10" points="164.1,105.6 161.1,104.5 161.1,106.7 
	"/>
</svg>
