<?xml version="1.0" encoding="utf-8"?>
<!-- Generator: Adobe Illustrator 18.0.0, SVG Export Plug-In . SVG Version: 6.00 Build 0)  -->
<!DOCTYPE svg PUBLIC "-//W3C//DTD SVG 1.1//EN" "http://www.w3.org/Graphics/SVG/1.1/DTD/svg11.dtd">
<svg version="1.1" id="Layer_1" xmlns="http://www.w3.org/2000/svg" xmlns:xlink="http://www.w3.org/1999/xlink" x="0px" y="0px"
	 viewBox="0 0 243.2 188.7" enable-background="new 0 0 243.2 188.7" xml:space="preserve">
<rect x="94.9" y="17.2" width="29.7" height="21.9"/>
<rect x="94.9" y="17.2" fill="none" stroke="#FFFFFF" stroke-width="0.5785" stroke-linecap="round" stroke-linejoin="round" stroke-miterlimit="10" width="29.7" height="21.9"/>
<text transform="matrix(1 0 0 1 102.5352 26.6852)" fill="#FFFFFF" font-family="'HelveticaNeue'" font-size="6.942">Data </text>
<text transform="matrix(1 0 0 1 100.0918 34.7863)" fill="#FFFFFF" font-family="'HelveticaNeue'" font-size="6.942">Pages</text>
<rect x="65.2" y="17.2" fill="#6F6F6F" width="29.7" height="21.9"/>
<rect x="65.2" y="17.2" fill="none" stroke="#FFFFFF" stroke-width="0.5785" stroke-linecap="round" stroke-linejoin="round" stroke-miterlimit="10" width="29.7" height="21.9"/>
<text transform="matrix(1 0 0 1 71.6758 26.6335)" fill="#FFFFFF" font-family="'HelveticaNeue'" font-size="6.942">Code </text>
<text transform="matrix(1 0 0 1 70.3906 34.7346)" fill="#FFFFFF" font-family="'HelveticaNeue'" font-size="6.942">Pages</text>
<rect x="65.2" y="120.7" width="114.8" height="32.8"/>
<rect x="65.2" y="120.7" fill="none" stroke="#FFFFFF" stroke-width="0.5785" stroke-linecap="round" stroke-linejoin="round" stroke-miterlimit="10" width="114.8" height="32.8"/>
<rect x="65.2" y="55.7" width="114.8" height="18.1"/>
<rect x="65.2" y="55.7" fill="none" stroke="#FFFFFF" stroke-width="0.5785" stroke-linecap="round" stroke-linejoin="round" stroke-miterlimit="10" width="114.8" height="18.1"/>
<rect x="65.2" y="81.2" width="114.8" height="30.7"/>
<rect x="65.2" y="81.2" fill="none" stroke="#FFFFFF" stroke-width="0.5785" stroke-linecap="round" stroke-linejoin="round" stroke-miterlimit="10" width="114.8" height="30.7"/>
<rect x="102.8" y="128" width="39.7" height="18.1"/>
<rect x="102.8" y="128" fill="none" stroke="#FFFFFF" stroke-width="0.5785" stroke-linecap="round" stroke-linejoin="round" stroke-miterlimit="10" width="39.7" height="18.1"/>
<text transform="matrix(1 0 0 1 114.086 139.3796)" fill="#FFFFFF" font-family="'HelveticaNeue'" font-size="6.942">MMU</text>
<text transform="matrix(1 0 0 1 90.5117 87.6896)" fill="#FFFFFF" font-family="'HelveticaNeue'" font-size="6.942">Hypervisor</text>
<text transform="matrix(1 0 0 1 91.8516 63.0173)" fill="#FFFFFF" font-family="'HelveticaNeue'" font-size="6.942">Operating </text>
<text transform="matrix(1 0 0 1 95.5791 71.1188)" fill="#FFFFFF" font-family="'HelveticaNeue'" font-size="6.942">System</text>
<text transform="matrix(1 0 0 1 66.8242 127.113)"><tspan x="0" y="0" fill="#FFFFFF" font-family="'HelveticaNeue'" font-size="6.942">P</tspan><tspan x="4.5" y="0" fill="#FFFFFF" font-family="'HelveticaNeue'" font-size="6.942">r</tspan><tspan x="6.7" y="0" fill="#FFFFFF" font-family="'HelveticaNeue'" font-size="6.942">ocessor</tspan></text>
<line fill="none" stroke="#FFFFFF" stroke-width="0.5785" stroke-linecap="round" stroke-linejoin="round" stroke-miterlimit="10" x1="82.3" y1="39.3" x2="82.3" y2="85.6"/>
<polyline fill="#FFFFFF" points="82.3,89 83.6,85.6 81,85.6 "/>
<polygon fill="none" stroke="#FFFFFF" stroke-width="0.5785" stroke-miterlimit="10" points="82.3,89 83.6,85.6 81,85.6 "/>
<path fill="#BEBEBE" d="M77.4,130.6h10.5c0.7,0,1.3,0.6,1.3,1.3v10.5c0,0.7-0.6,1.3-1.3,1.3H77.4c-0.7,0-1.3-0.6-1.3-1.3v-10.5
	C76.1,131.1,76.7,130.6,77.4,130.6"/>
<path d="M87.7,141.5c0.2,0.2,0.2,0.6,0,0.9c-0.2,0.2-0.6,0.2-0.9,0c-0.2-0.2-0.2-0.6,0-0.9C87,141.3,87.4,141.3,87.7,141.5"/>
<path d="M78.4,132.2c0.2,0.2,0.2,0.6,0,0.9c-0.2,0.2-0.6,0.2-0.9,0c-0.2-0.2-0.2-0.6,0-0.9C77.8,132,78.2,132,78.4,132.2"/>
<path fill="#BEBEBE" d="M75.7,132.9v1.3h-1.2c-0.1,0-0.1,0-0.1-0.1V133c0-0.1,0-0.1,0.1-0.1H75.7"/>
<path fill="#BEBEBE" d="M75.7,135.2v1.3h-1.2c-0.1,0-0.1,0-0.1-0.1v-1.1c0-0.1,0-0.1,0.1-0.1H75.7"/>
<path fill="#BEBEBE" d="M75.7,137.5v1.3h-1.2c-0.1,0-0.1,0-0.1-0.1v-1.1c0-0.1,0-0.1,0.1-0.1H75.7"/>
<path fill="#BEBEBE" d="M75.7,139.8v1.3h-1.2c-0.1,0-0.1,0-0.1-0.1v-1.1c0-0.1,0-0.1,0.1-0.1H75.7"/>
<path fill="#BEBEBE" d="M90.9,132.9v1.3h-1.2c-0.1,0-0.1,0-0.1-0.1V133c0-0.1,0-0.1,0.1-0.1H90.9"/>
<path fill="#BEBEBE" d="M90.9,135.2v1.3h-1.2c-0.1,0-0.1,0-0.1-0.1v-1.1c0-0.1,0-0.1,0.1-0.1H90.9"/>
<path fill="#BEBEBE" d="M90.9,137.5v1.3h-1.2c-0.1,0-0.1,0-0.1-0.1v-1.1c0-0.1,0-0.1,0.1-0.1H90.9"/>
<path fill="#BEBEBE" d="M90.9,139.8v1.3h-1.2c-0.1,0-0.1,0-0.1-0.1v-1.1c0-0.1,0-0.1,0.1-0.1H90.9"/>
<path fill="#BEBEBE" d="M86.7,130.2h-1.2c-0.1,0-0.1,0-0.1-0.1V129c0-0.1,0-0.1,0.1-0.1h1.1c0.1,0,0.1,0,0.1,0.1V130.2"/>
<path fill="#BEBEBE" d="M84.4,130.2h-1.2c-0.1,0-0.1,0-0.1-0.1V129c0-0.1,0-0.1,0.1-0.1h1.1c0.1,0,0.1,0,0.1,0.1V130.2"/>
<path fill="#BEBEBE" d="M82.2,130.2H81c-0.1,0-0.1,0-0.1-0.1V129c0-0.1,0-0.1,0.1-0.1H82c0.1,0,0.1,0,0.1,0.1V130.2"/>
<path fill="#BEBEBE" d="M79.9,130.2h-1.2c-0.1,0-0.1,0-0.1-0.1V129c0-0.1,0-0.1,0.1-0.1h1.1c0.1,0,0.1,0,0.1,0.1V130.2"/>
<path fill="#BEBEBE" d="M86.7,145.2h-1.2c-0.1,0-0.1,0-0.1-0.1v-1.1c0-0.1,0-0.1,0.1-0.1h1.1c0.1,0,0.1,0,0.1,0.1V145.2"/>
<path fill="#BEBEBE" d="M84.4,145.2h-1.2c-0.1,0-0.1,0-0.1-0.1v-1.1c0-0.1,0-0.1,0.1-0.1h1.1c0.1,0,0.1,0,0.1,0.1V145.2"/>
<path fill="#BEBEBE" d="M82.2,145.2H81c-0.1,0-0.1,0-0.1-0.1v-1.1c0-0.1,0-0.1,0.1-0.1H82c0.1,0,0.1,0,0.1,0.1V145.2"/>
<path fill="#BEBEBE" d="M79.9,145.2h-1.2c-0.1,0-0.1,0-0.1-0.1v-1.1c0-0.1,0-0.1,0.1-0.1h1.1c0.1,0,0.1,0,0.1,0.1V145.2"/>
<line fill="none" stroke="#FFFFFF" stroke-width="0.5785" stroke-linecap="round" stroke-linejoin="round" stroke-miterlimit="10" x1="107.2" y1="108.2" x2="107.2" y2="123.4"/>
<polyline fill="#FFFFFF" points="107.2,126.8 108.5,123.4 105.9,123.4 "/>
<polygon fill="none" stroke="#FFFFFF" stroke-width="0.5785" stroke-miterlimit="10" points="107.2,126.8 108.5,123.4 105.9,123.4 
	"/>
<line fill="none" stroke="#FFFFFF" stroke-width="0.5785" stroke-linecap="round" stroke-linejoin="round" stroke-miterlimit="10" x1="137" y1="108.5" x2="137" y2="123.4"/>
<polyline fill="#FFFFFF" points="137,126.8 138.3,123.4 135.7,123.4 "/>
<polygon fill="none" stroke="#FFFFFF" stroke-width="0.5785" stroke-miterlimit="10" points="137,126.8 138.3,123.4 135.7,123.4 "/>
<polyline fill="none" stroke="#FFFFFF" stroke-width="0.5785" stroke-linecap="round" stroke-linejoin="round" stroke-miterlimit="10" points="
	142.5,137.1 167.6,137.1 167.9,77.8 "/>
<polyline fill="#FFFFFF" points="167.9,74.3 166.6,77.8 169.2,77.8 "/>
<polygon fill="none" stroke="#FFFFFF" stroke-width="0.5785" stroke-miterlimit="10" points="167.9,74.3 166.6,77.8 169.2,77.8 "/>
<text transform="matrix(1 0 0 1 150.2813 142.4723)" fill="#FFFFFF" font-family="'HelveticaNeue'" font-size="5.785">Access </text>
<text transform="matrix(1 0 0 1 147.2256 149.4142)"><tspan x="0" y="0" fill="#FFFFFF" font-family="'HelveticaNeue'" font-size="5.785">V</tspan><tspan x="3.4" y="0" fill="#FFFFFF" font-family="'HelveticaNeue'" font-size="5.785">iolations</tspan></text>
<rect x="126.4" y="17.2" fill="#282829" width="26.9" height="21.9"/>
<rect x="126.4" y="17.2" fill="none" stroke="#FFFFFF" stroke-width="0.5785" stroke-linecap="round" stroke-linejoin="round" stroke-miterlimit="10" width="26.9" height="21.9"/>
<text transform="matrix(1 0 0 1 131.4248 26.6335)" fill="#FFFFFF" font-family="'HelveticaNeue'" font-size="6.942">Code </text>
<text transform="matrix(1 0 0 1 130.1406 34.7346)" fill="#FFFFFF" font-family="'HelveticaNeue'" font-size="6.942">Pages</text>
<line fill="none" stroke="#FFFFFF" stroke-width="0.5785" stroke-linecap="round" stroke-linejoin="round" stroke-miterlimit="10" x1="137.1" y1="39.9" x2="137.1" y2="85.3"/>
<polyline fill="#FFFFFF" points="137.1,88.7 138.4,85.3 135.8,85.3 "/>
<polygon fill="none" stroke="#FFFFFF" stroke-width="0.5785" stroke-miterlimit="10" points="137.1,88.7 138.4,85.3 135.8,85.3 "/>
<rect x="152.7" y="17.2" width="26.9" height="21.9"/>
<rect x="152.7" y="17.2" fill="none" stroke="#FFFFFF" stroke-width="0.5785" stroke-linecap="round" stroke-linejoin="round" stroke-miterlimit="10" width="26.9" height="21.9"/>
<text transform="matrix(1 0 0 1 158.9199 26.6335)" fill="#FFFFFF" font-family="'HelveticaNeue'" font-size="6.942">Data </text>
<text transform="matrix(1 0 0 1 156.4766 34.7346)" fill="#FFFFFF" font-family="'HelveticaNeue'" font-size="6.942">Pages</text>
<polyline fill="none" stroke="#FFFFFF" stroke-width="0.5785" stroke-linecap="round" stroke-linejoin="round" stroke-miterlimit="10" points="
	109.8,39.1 109.8,47.9 166.2,47.9 166.2,39.1 "/>
<rect x="119.4" y="90.4" width="39.7" height="18.1"/>
<rect x="119.4" y="90.4" fill="none" stroke="#FFFFFF" stroke-width="0.5785" stroke-linecap="round" stroke-linejoin="round" stroke-miterlimit="10" width="39.7" height="18.1"/>
<text transform="matrix(1 0 0 1 128.043 97.7214)" fill="#FFFFFF" font-family="'HelveticaNeue'" font-size="6.942">Normal </text>
<text transform="matrix(1 0 0 1 125.6553 105.8224)" fill="#FFFFFF" font-family="'HelveticaNeue'" font-size="6.942">mapping</text>
<rect x="71.8" y="90.4" width="39.7" height="18.1"/>
<rect x="71.8" y="90.4" fill="none" stroke="#FFFFFF" stroke-width="0.5785" stroke-linecap="round" stroke-linejoin="round" stroke-miterlimit="10" width="39.7" height="18.1"/>
<text transform="matrix(1 0 0 1 74.6944 97.7214)" fill="#FFFFFF" font-family="'HelveticaNeue'" font-size="6.942">Readacted </text>
<text transform="matrix(1 0 0 1 77.9639 105.8224)" fill="#FFFFFF" font-family="'HelveticaNeue'" font-size="6.942">mapping</text>
<text transform="matrix(1 0 0 1 72.0772 14.5138)"><tspan x="0" y="0" fill="#FFFFFF" font-family="'HelveticaNeue'" font-size="6.942">Readacted Ap</tspan><tspan x="44.4" y="0" fill="#FFFFFF" font-family="'HelveticaNeue'" font-size="6.942" letter-spacing="12">p</tspan><tspan x="61" y="0" fill="#FFFFFF" font-family="'HelveticaNeue'" font-size="6.942">Legacy App</tspan></text>
<rect x="133.2" y="174.7" fill="#5B5C5C" width="4.6" height="5.3"/>
<rect x="133.2" y="174.7" fill="none" stroke="#FFFFFF" stroke-width="0.5785" stroke-linecap="round" stroke-linejoin="round" stroke-miterlimit="10" width="4.6" height="5.3"/>
<text transform="matrix(1 0 0 1 139.1846 179.4357)" fill="#FFFFFF" font-family="'HelveticaNeue'" font-size="6.942">Execute-only</text>
<text transform="matrix(1 0 0 1 71.9238 179.4357)" fill="#FFFFFF" font-family="'HelveticaNeue'" font-size="6.942">Readable-writable</text>
<rect x="66.4" y="174.7" fill="none" stroke="#FFFFFF" stroke-width="0.5785" stroke-linecap="round" stroke-linejoin="round" stroke-miterlimit="10" width="4.6" height="5.3"/>
<text transform="matrix(1 0 0 1 72.1563 169.0226)" fill="#FFFFFF" font-family="'HelveticaNeue'" font-size="6.942">Readable-executable</text>
<rect x="66.4" y="164.3" fill="#282829" width="4.6" height="5.3"/>
<rect x="66.4" y="164.3" fill="none" stroke="#FFFFFF" stroke-width="0.5785" stroke-linecap="round" stroke-linejoin="round" stroke-miterlimit="10" width="4.6" height="5.3"/>
</svg>
