<?xml version="1.0" encoding="utf-8"?>
<!-- Generator: Adobe Illustrator 18.0.0, SVG Export Plug-In . SVG Version: 6.00 Build 0)  -->
<!DOCTYPE svg PUBLIC "-//W3C//DTD SVG 1.1//EN" "http://www.w3.org/Graphics/SVG/1.1/DTD/svg11.dtd">
<svg version="1.1" id="Layer_1" xmlns="http://www.w3.org/2000/svg" xmlns:xlink="http://www.w3.org/1999/xlink" x="0px" y="0px"
	 viewBox="0 106.5 283.5 66" enable-background="new 0 106.5 283.5 66" xml:space="preserve">
<path d="M6.9,116.7h40.2c0.3,0,0.6,0.2,0.6,0.6v18.4c0,0.3-0.2,0.6-0.6,0.6H6.9c-0.3,0-0.6-0.2-0.6-0.6v-18.4
	C6.3,117.1,6.5,116.7,6.9,116.7"/>
<path fill="none" stroke="#FEFEFE" stroke-width="1.1048" stroke-linecap="round" stroke-linejoin="round" stroke-miterlimit="10" d="
	M6.9,116.7h40.2c0.3,0,0.6,0.2,0.6,0.6v18.4c0,0.3-0.2,0.6-0.6,0.6H6.9c-0.3,0-0.6-0.2-0.6-0.6v-18.4C6.3,117.1,6.5,116.7,6.9,116.7
	z"/>
<text transform="matrix(1 0 0 1 17.4102 125.4722)" fill="#FFFFFF" font-family="'HelveticaNeue'" font-size="4.8864">Function</text>
<text transform="matrix(1 0 0 1 13.7442 131.4424)" fill="#FFFFFF" font-family="'HelveticaNeue'" font-size="4.8864">Compilation</text>
<line fill="none" stroke="#FEFEFE" stroke-width="0.7362" stroke-linecap="round" stroke-linejoin="round" stroke-miterlimit="10" x1="48.4" y1="126.3" x2="52.2" y2="126.3"/>
<polyline fill="#FEFEFE" points="56.5,126.3 52.2,124.7 52.2,127.9 "/>
<polygon fill="none" stroke="#FEFEFE" stroke-width="0.7362" stroke-miterlimit="10" points="56.5,126.3 52.2,124.7 52.2,127.9 "/>
<line fill="none" stroke="#FEFEFE" stroke-width="0.7362" stroke-linecap="round" stroke-linejoin="round" stroke-miterlimit="10" x1="154.6" y1="126.3" x2="158.4" y2="126.3"/>
<polyline fill="#FEFEFE" points="162.7,126.3 158.4,124.7 158.4,127.9 "/>
<polygon fill="none" stroke="#FEFEFE" stroke-width="0.7362" stroke-miterlimit="10" points="162.7,126.3 158.4,124.7 158.4,127.9 
	"/>
<path fill="#5B5B5B" d="M163.8,116.7h38.6c0.3,0,0.6,0.2,0.6,0.6v18.4c0,0.3-0.2,0.6-0.6,0.6h-38.6c-0.3,0-0.6-0.2-0.6-0.6v-18.4
	C163.3,117.1,163.5,116.7,163.8,116.7"/>
<path fill="none" stroke="#FEFEFE" stroke-width="1.1048" stroke-linecap="round" stroke-linejoin="round" stroke-miterlimit="10" d="
	M163.8,116.7h38.6c0.3,0,0.6,0.2,0.6,0.6v18.4c0,0.3-0.2,0.6-0.6,0.6h-38.6c-0.3,0-0.6-0.2-0.6-0.6v-18.4
	C163.3,117.1,163.5,116.7,163.8,116.7z"/>
<text transform="matrix(1 0 0 1 171.5781 125.4722)" fill="#FFFFFF" font-family="'HelveticaNeue'" font-size="4.8864">Generated </text>
<text transform="matrix(1 0 0 1 170.4043 131.4424)" fill="#FFFFFF" font-family="'HelveticaNeue'" font-size="4.8864">Code Exec.</text>
<path d="M107.5,116.7h46.7c0.3,0,0.6,0.2,0.6,0.6v18.4c0,0.3-0.2,0.6-0.6,0.6h-46.7c-0.3,0-0.6-0.2-0.6-0.6v-18.4
	C107,117.1,107.2,116.7,107.5,116.7"/>
<path fill="none" stroke="#FEFEFE" stroke-width="1.1048" stroke-linecap="round" stroke-linejoin="round" stroke-miterlimit="10" d="
	M107.5,116.7h46.7c0.3,0,0.6,0.2,0.6,0.6v18.4c0,0.3-0.2,0.6-0.6,0.6h-46.7c-0.3,0-0.6-0.2-0.6-0.6v-18.4
	C107,117.1,107.2,116.7,107.5,116.7z"/>
<text transform="matrix(1 0 0 1 121.3262 125.4722)" fill="#FFFFFF" font-family="'HelveticaNeue'" font-size="4.8864">Function</text>
<text transform="matrix(1 0 0 1 117.0244 131.4424)" fill="#FFFFFF" font-family="'HelveticaNeue'" font-size="4.8864">Optimization</text>
<path fill="#5B5B5B" d="M59.2,116.7h38.6c0.3,0,0.6,0.2,0.6,0.6v18.4c0,0.3-0.2,0.6-0.6,0.6H59.2c-0.3,0-0.6-0.2-0.6-0.6v-18.4
	C58.7,117.1,59,116.7,59.2,116.7"/>
<path fill="none" stroke="#FEFEFE" stroke-width="1.1048" stroke-linecap="round" stroke-linejoin="round" stroke-miterlimit="10" d="
	M59.2,116.7h38.6c0.3,0,0.6,0.2,0.6,0.6v18.4c0,0.3-0.2,0.6-0.6,0.6H59.2c-0.3,0-0.6-0.2-0.6-0.6v-18.4
	C58.7,117.1,59,116.7,59.2,116.7z"/>
<text transform="matrix(1 0 0 1 67.0395 125.4722)" fill="#FFFFFF" font-family="'HelveticaNeue'" font-size="4.8864">Generated </text>
<text transform="matrix(1 0 0 1 65.8671 131.4424)" fill="#FFFFFF" font-family="'HelveticaNeue'" font-size="4.8864">Code Exec.</text>
<line fill="none" stroke="#FEFEFE" stroke-width="0.7362" stroke-linecap="round" stroke-linejoin="round" stroke-miterlimit="10" x1="98.5" y1="126.3" x2="102.3" y2="126.3"/>
<polyline fill="#FEFEFE" points="106.8,126.3 102.3,124.7 102.3,127.9 "/>
<polygon fill="none" stroke="#FEFEFE" stroke-width="0.7362" stroke-miterlimit="10" points="106.8,126.3 102.3,124.7 102.3,127.9 
	"/>
<line fill="none" stroke="#FEFEFE" stroke-width="0.7362" stroke-linecap="round" stroke-linejoin="round" stroke-miterlimit="10" x1="203.7" y1="126.3" x2="207.6" y2="126.3"/>
<polyline fill="#FEFEFE" points="211.9,126.3 207.6,124.7 207.6,127.9 "/>
<polygon fill="none" stroke="#FEFEFE" stroke-width="0.7362" stroke-miterlimit="10" points="211.9,126.3 207.6,124.7 207.6,127.9 
	"/>
<path d="M213.8,116.7h46.7c0.3,0,0.6,0.2,0.6,0.6v18.4c0,0.3-0.2,0.6-0.6,0.6h-46.7c-0.3,0-0.6-0.2-0.6-0.6v-18.4
	C213.2,117.1,213.4,116.7,213.8,116.7"/>
<path fill="none" stroke="#FEFEFE" stroke-width="1.1048" stroke-linecap="round" stroke-linejoin="round" stroke-miterlimit="10" d="
	M213.8,116.7h46.7c0.3,0,0.6,0.2,0.6,0.6v18.4c0,0.3-0.2,0.6-0.6,0.6h-46.7c-0.3,0-0.6-0.2-0.6-0.6v-18.4
	C213.2,117.1,213.4,116.7,213.8,116.7z"/>
<text transform="matrix(1 0 0 1 216.0253 128.4565)" fill="#FFFFFF" font-family="'HelveticaNeue'" font-size="4.8864">Garbage Collection</text>
<line fill="none" stroke="#FEFEFE" stroke-width="0.7362" stroke-linecap="round" stroke-linejoin="round" stroke-miterlimit="10" x1="261.3" y1="126.3" x2="265.2" y2="126.3"/>
<polyline fill="#FEFEFE" points="269.5,126.3 265.2,124.7 265.2,127.9 "/>
<polygon fill="none" stroke="#FEFEFE" stroke-width="0.7362" stroke-miterlimit="10" points="269.5,126.3 265.2,124.7 265.2,127.9 
	"/>
<line fill="none" stroke="#FEFEFE" stroke-width="0.7362" stroke-linecap="round" stroke-linejoin="round" stroke-miterlimit="10" x1="7.2" y1="149.8" x2="46.2" y2="149.8"/>
<line fill="none" stroke="#FEFEFE" stroke-width="0.7362" stroke-miterlimit="10" x1="46.2" y1="147.6" x2="46.2" y2="151.9"/>
<line fill="none" stroke="#FEFEFE" stroke-width="0.7362" stroke-miterlimit="10" x1="7.2" y1="151.9" x2="7.2" y2="147.6"/>
<text transform="matrix(1 0 0 1 12.6255 146.6797)" fill="#FFFFFF" font-family="'HelveticaNeue'" font-size="4.8864">Modify Code </text>
<line fill="none" stroke="#FEFEFE" stroke-width="0.7362" stroke-linecap="round" stroke-linejoin="round" stroke-miterlimit="10" x1="59.6" y1="149.8" x2="97" y2="149.8"/>
<line fill="none" stroke="#FEFEFE" stroke-width="0.7362" stroke-miterlimit="10" x1="97" y1="147.6" x2="97" y2="151.9"/>
<line fill="none" stroke="#FEFEFE" stroke-width="0.7362" stroke-miterlimit="10" x1="59.6" y1="151.9" x2="59.6" y2="147.6"/>
<text transform="matrix(1 0 0 1 64.5615 146.6797)" fill="#FFFFFF" font-family="'HelveticaNeue'" font-size="4.8864">Execute Code</text>
<line fill="none" stroke="#FEFEFE" stroke-width="0.7362" stroke-linecap="round" stroke-linejoin="round" stroke-miterlimit="10" x1="107.7" y1="149.8" x2="153.4" y2="149.8"/>
<line fill="none" stroke="#FEFEFE" stroke-width="0.7362" stroke-miterlimit="10" x1="153.4" y1="147.6" x2="153.4" y2="151.9"/>
<line fill="none" stroke="#FEFEFE" stroke-width="0.7362" stroke-miterlimit="10" x1="107.7" y1="151.9" x2="107.7" y2="147.6"/>
<text transform="matrix(1 0 0 1 116.4839 146.6797)" fill="#FFFFFF" font-family="'HelveticaNeue'" font-size="4.8864">Modify Code</text>
<line fill="none" stroke="#FEFEFE" stroke-width="0.7362" stroke-linecap="round" stroke-linejoin="round" stroke-miterlimit="10" x1="216.1" y1="149.8" x2="259.7" y2="149.8"/>
<line fill="none" stroke="#FEFEFE" stroke-width="0.7362" stroke-miterlimit="10" x1="259.7" y1="147.6" x2="259.7" y2="151.9"/>
<line fill="none" stroke="#FEFEFE" stroke-width="0.7362" stroke-miterlimit="10" x1="216.1" y1="151.9" x2="216.1" y2="147.6"/>
<text transform="matrix(1 0 0 1 223.7724 146.6797)" fill="#FFFFFF" font-family="'HelveticaNeue'" font-size="4.8864">Modify Code</text>
<text transform="matrix(1 0 0 1 66.0776 161.9512)" fill="#FFFFFF" font-family="'HelveticaNeue'" font-size="4.8864">Readable-writable</text>
<rect x="58.7" y="158.7" fill="none" stroke="#FEFEFE" stroke-width="0.7362" stroke-linecap="round" stroke-linejoin="round" stroke-miterlimit="10" width="4.5" height="5"/>
<rect x="6.5" y="158.7" fill="#5B5B5B" width="4.5" height="5"/>
<rect x="6.5" y="158.7" fill="none" stroke="#FEFEFE" stroke-width="0.7362" stroke-linecap="round" stroke-linejoin="round" stroke-miterlimit="10" width="4.5" height="5"/>
<text transform="matrix(1 0 0 1 20.0127 161.9512)" fill="#FFFFFF" font-family="'HelveticaNeue'" font-size="4.8864">Execute-only</text>
<text transform="matrix(1 0 0 1 274.8447 125.5757)" fill="#FFFFFF" font-family="'HelveticaNeue'" font-size="4.8864">…</text>
<line fill="none" stroke="#FEFEFE" stroke-width="0.7362" stroke-linecap="round" stroke-linejoin="round" stroke-miterlimit="10" x1="164.6" y1="149.8" x2="202.1" y2="149.8"/>
<line fill="none" stroke="#FEFEFE" stroke-width="0.7362" stroke-miterlimit="10" x1="202.1" y1="147.6" x2="202.1" y2="151.9"/>
<line fill="none" stroke="#FEFEFE" stroke-width="0.7362" stroke-miterlimit="10" x1="164.6" y1="151.9" x2="164.6" y2="147.6"/>
<text transform="matrix(1 0 0 1 169.6181 146.6797)" fill="#FFFFFF" font-family="'HelveticaNeue'" font-size="4.8864">Execute Code</text>
</svg>
